<svg width="412" height="314" viewBox="0 0 412 314" fill="none" xmlns="http://www.w3.org/2000/svg">
<path fill-rule="evenodd" clip-rule="evenodd" d="M320.478 112.549C320.089 113.227 319.507 113.711 318.73 114.001C317.954 114.389 317.08 114.582 316.109 114.582C314.847 114.582 313.634 114.243 312.469 113.566C311.304 112.985 310.382 112.065 309.702 110.806C308.732 108.967 308.101 107.369 307.81 106.014C307.81 105.82 307.761 105.578 307.664 105.288C307.664 104.997 307.567 104.61 307.373 104.126C307.179 101.996 307.081 100.35 307.081 99.1885C307.081 98.1235 307.179 96.526 307.373 94.3961C308.052 89.0712 308.877 84.5692 309.848 80.8902L310.722 76.5334C310.916 75.8557 311.11 75.2264 311.304 74.6455C311.498 73.9678 311.692 73.3385 311.887 72.7576L313.051 68.1104V67.5295L311.45 68.9817C309.897 70.6276 308.295 72.5155 306.645 74.6455C304.703 76.9691 303.393 78.6634 302.713 79.7284C302.131 80.4061 301.5 81.2774 300.82 82.3424C300.238 83.4074 299.752 84.2303 299.364 84.8112C298.393 86.1667 297.131 88.3934 295.578 91.4916L292.957 97.1553C291.695 100.35 290.967 102.335 290.773 103.11C290.385 103.884 290.191 104.513 290.191 104.997C290.094 105.288 289.851 105.627 289.463 106.014C288.589 106.595 287.715 106.885 286.842 106.885C285.094 106.885 283.833 106.208 283.056 104.852C282.765 103.787 282.619 102.771 282.619 101.803C282.619 100.931 282.716 99.5273 282.91 97.591L283.638 90.6202C284.027 87.038 284.366 84.1819 284.658 82.052C285.337 76.4366 286.065 71.8378 286.842 68.2556C287.618 64.2861 288.298 61.188 288.88 58.9612C289.074 58.0899 289.463 56.3956 290.045 53.8784L291.064 48.9407C291.55 47.3917 292.181 45.0681 292.957 41.9699L293.831 39.2107C294.316 36.9839 295.044 34.7087 296.015 32.3851C296.112 31.9978 296.209 31.659 296.306 31.3685L296.598 30.2067C296.889 29.3354 297.568 27.3507 298.636 24.2525L299.021 23.1787C298.96 23.1898 298.898 23.2009 298.834 23.212C298.788 23.22 298.741 23.228 298.693 23.236C298.208 23.3328 297.819 23.3812 297.528 23.3812C294.616 24.1557 292.432 24.6882 290.976 24.9787L284.714 26.4309L283.113 26.8666C283.307 27.0602 283.404 27.2054 283.404 27.3022C284.472 27.98 285.006 29.1418 285.006 30.7876C285.006 32.2399 284.714 34.4183 284.132 37.3227L281.511 47.7789L278.308 59.2517L276.997 64.1893L275.104 70.8697L273.211 78.2761C272.823 79.3411 272.483 80.5997 272.192 82.052L270.154 89.0227L268.115 96.284L266.222 103.255L264.475 109.064L262.436 116.18C262.339 116.47 262.194 117.148 261.999 118.213C261.805 119.278 261.368 120.294 260.689 121.263C260.106 122.037 259.33 122.424 258.359 122.424C257.874 122.424 257.291 122.328 256.612 122.134C256.029 122.037 255.495 121.94 255.01 121.844C254.525 121.747 254.136 121.456 253.845 120.972C253.554 120.585 253.408 120.101 253.408 119.52L253.7 118.503L255.156 113.13L258.214 101.948L261.708 88.1514L263.747 80.164L265.64 73.4837L267.678 65.6416C269.134 60.7039 270.785 54.9433 272.629 48.3598L276.706 34.4183L278.308 29.4806C278.308 29.1902 278.405 28.7545 278.599 28.1736C278.114 27.98 277.483 27.98 276.706 28.1736C274.57 28.7545 272.969 29.1418 271.901 29.3354C271.124 29.529 270.542 29.6258 270.154 29.6258C269.959 29.6258 269.668 29.6743 269.28 29.7711C268.892 29.8679 268.552 29.9647 268.261 30.0615C265.445 30.9329 262.436 31.659 259.233 32.2399L258.65 32.3851L248.749 35.2896L248.458 35.4348L244.817 37.0323C245.012 37.4196 245.448 37.6132 246.128 37.6132L251.37 38.775C254.379 39.6463 256.757 40.6629 258.505 41.8247C259.573 42.5992 260.349 43.7126 260.834 45.1649C261.029 45.5522 261.126 45.891 261.126 46.1815C261.126 46.5687 260.98 47.0044 260.689 47.4885C260.301 48.3598 259.621 48.6987 258.65 48.5051C257.388 48.2146 256.418 47.4401 255.738 46.1815V45.1649C255.738 44.4872 255.398 44.0031 254.719 43.7126C253.166 43.1317 251.952 42.7445 251.079 42.5508L246.565 41.8247C245.303 41.6311 243.507 41.2438 241.177 40.6629C240.304 40.4693 239.187 39.8884 237.828 38.9202C237.44 38.533 237.197 38.2425 237.1 38.0489C236.712 37.6616 236.518 37.1291 236.518 36.4514C236.518 35.9673 236.615 35.5801 236.809 35.2896C237.294 34.3214 237.925 33.5953 238.702 33.1112C239.867 32.4335 241.468 31.659 243.507 30.7876C245.448 30.0131 248.458 29.0449 252.535 27.8831C255.059 27.1086 257 26.5761 258.359 26.2857L266.513 24.2525C269.231 23.478 271.318 22.9455 272.774 22.6551L274.667 22.2194C276.803 21.8321 280.006 21.1544 284.278 20.1862L291.413 18.734L294.325 18.1531L299.421 17.2817L301.397 16.8534C303.503 12.1698 305.447 8.58516 307.227 6.09945C308.974 3.58221 310.673 1.83952 312.323 0.871354L312.615 0.726131C314.071 0.242044 315.333 0 316.4 0C317.177 0 317.905 0.145226 318.585 0.435677C319.555 0.822944 320.672 1.45225 321.934 2.3236C322.516 2.71087 322.904 3.24336 323.099 3.92107C323.39 5.17968 323.535 6.4383 323.535 7.69691L323.39 10.7466C323.32 11.4171 323.239 12.0825 323.146 12.7429C324.234 12.5324 325.402 12.3026 326.65 12.0537C328.106 11.7632 330.824 11.2791 334.804 10.6014C334.998 10.6014 335.144 10.553 335.241 10.4562C335.823 10.2626 336.26 10.1657 336.552 10.1657C336.746 10.1657 337.425 10.311 338.59 10.6014C339.658 10.9887 340.337 11.7632 340.629 12.925C340.629 13.3123 340.483 13.6027 340.192 13.7964C340.095 13.99 339.852 14.1836 339.464 14.3773C337.716 14.9581 336.406 15.297 335.532 15.3938C335.144 15.3938 334.853 15.4422 334.659 15.5391C333.979 15.8295 333.057 16.0715 331.892 16.2652C330.824 16.4588 329.853 16.6524 328.98 16.8461L323.301 18.0079C322.963 18.0561 322.564 18.1162 322.106 18.1884C321.623 20.1621 321.032 22.0866 320.332 23.9621C319.07 27.7379 318.148 30.2067 317.565 31.3685C315.527 36.6934 313.294 41.4375 310.867 45.6006C309.12 48.7955 307.033 52.0389 304.606 55.3306C301.5 59.3969 299.121 62.3014 297.471 64.0441C296.792 64.8186 296.306 65.7384 296.015 66.8034L294.413 75.5168C294.219 76.485 294.025 77.9373 293.831 79.8736L292.957 84.3755C292.763 84.7628 292.86 85.1501 293.249 85.5374C293.443 85.3437 293.54 85.1985 293.54 85.1017C294.802 82.8749 297.423 79.0507 301.403 73.6289C303.927 70.3372 307.13 66.6097 311.013 62.4466L314.944 58.816C315.818 58.0415 316.886 57.6542 318.148 57.6542C319.507 57.6542 320.623 58.2351 321.497 59.3969C322.37 60.5587 322.807 61.9625 322.807 63.6084C322.807 64.383 322.759 64.9639 322.662 65.3511L320.914 72.0315L318.585 81.4711C318.196 83.2138 317.711 85.6826 317.129 88.8775C316.158 93.7183 315.672 98.1235 315.672 102.093C315.672 102.674 315.721 103.69 315.818 105.143C315.915 106.595 316.061 107.902 316.255 109.064L316.4 109.354C317.08 109.064 317.76 108.241 318.439 106.885C319.216 105.53 320.38 103.158 321.934 99.7694L323.39 96.5744L325.283 92.3629L327.904 86.5539L329.034 83.9812C329.101 83.73 329.171 83.4742 329.243 83.2138C330.116 79.7284 331.33 76.4366 332.883 73.3385C333.854 71.0149 334.679 69.3206 335.358 68.2556C336.232 66.6097 337.057 65.2543 337.834 64.1893C339.29 62.0594 341.183 60.6555 343.512 59.9778C344.386 59.6874 345.26 59.5421 346.133 59.5421C347.395 59.5421 348.706 59.9778 350.065 60.8492C350.162 60.946 350.841 61.4785 352.103 62.4466L352.686 61.8657C352.88 61.2848 353.074 60.8492 353.268 60.5587C353.656 59.5905 354.433 58.8644 355.598 58.3803C355.986 58.1867 356.326 58.1867 356.617 58.3803C357.394 58.6708 358.559 59.2033 360.112 59.9778C360.791 60.3651 361.034 60.946 360.84 61.7205C360.84 62.011 360.791 62.4466 360.694 63.0275C360.597 63.5116 360.5 63.8989 360.403 64.1893C359.821 66.7065 358.995 69.7079 357.928 73.1933C356.569 77.8404 355.646 81.3742 355.161 83.7947C354.384 86.8928 353.851 89.2164 353.559 90.7654C353.365 91.8304 353.171 93.4279 352.977 95.5579L352.103 103.545V103.981C352.2 104.078 352.395 103.981 352.686 103.69C352.977 103.11 353.365 102.48 353.851 101.803C354.336 101.125 354.821 100.35 355.307 99.4789C356.86 96.5744 358.316 93.5247 359.675 90.3298L361.859 85.5374L365.499 77.2595L368.657 70.2621C368.869 69.4294 369.096 68.5669 369.336 67.6747C370.404 64.383 371.229 62.1562 371.812 60.9944L372.831 59.3969C373.413 58.5256 374.239 58.0899 375.306 58.0899H376.908C378.364 58.1867 379.092 59.5421 379.092 62.1562C379.092 63.0275 378.995 64.0441 378.801 65.2059C378.704 65.5932 378.461 66.5129 378.073 67.9652L376.908 73.1933C376.714 73.9678 376.471 74.8875 376.18 75.9525C375.986 77.0175 375.792 78.2277 375.598 79.5831C375.209 82.1004 374.967 83.9399 374.87 85.1017V86.1182C375.161 86.0214 375.549 85.731 376.034 85.2469L377.782 82.9233C378.267 82.3424 378.801 81.6647 379.383 80.8902C379.966 80.1156 380.597 79.2443 381.276 78.2761L385.645 71.3053C386.518 69.6595 387.732 67.8199 389.285 65.7868L390.304 64.625C391.081 63.8505 392.003 63.4632 393.071 63.4632C393.556 63.4632 393.944 63.5116 394.236 63.6084C395.498 63.9957 396.468 64.7702 397.148 65.932C397.536 66.7065 397.73 67.3843 397.73 67.9652C397.536 70.2888 397.293 72.0315 397.002 73.1933C396.226 75.7105 395.401 79.2443 394.527 83.7947C394.139 85.3437 393.896 86.5055 393.799 87.2801C393.605 88.0546 393.411 89.3132 393.216 91.0559C393.119 91.7336 392.974 92.5565 392.78 93.5247C392.585 94.3961 392.44 95.461 392.343 96.7197C392.149 97.8815 392.003 98.898 391.906 99.7694V101.948C391.809 103.497 391.76 105.82 391.76 108.919L392.051 113.275L392.488 112.84C393.459 111.387 394.236 109.741 394.818 107.902L397.439 100.931L399.041 96.1388C399.235 95.7515 399.575 94.7833 400.06 93.2343L401.516 89.3132C402.099 87.9578 402.535 86.796 402.827 85.8278C403.215 84.7628 403.506 83.8915 403.7 83.2138L405.884 77.4048C407.729 72.6608 408.7 70.0951 408.797 69.7079C408.894 69.2238 409.136 68.8365 409.525 68.5461C409.913 68.1588 410.253 67.9652 410.544 67.9652C410.932 67.9652 411.272 68.1588 411.563 68.5461C411.854 68.9333 412 69.5142 412 70.2888C412 70.7728 411.951 71.1601 411.854 71.4506L408.651 81.4711C406.418 88.7323 404.622 94.0572 403.263 97.4458C402.584 99.1885 402.05 100.738 401.662 102.093L399.914 106.885C399.72 107.466 399.332 108.483 398.75 109.935C398.264 111.484 397.73 112.791 397.148 113.856C396.08 115.889 395.449 117.1 395.255 117.487C394.867 118.165 394.187 118.649 393.216 118.939C392.246 119.133 391.615 119.229 391.323 119.229C389.867 119.229 388.46 118.842 387.101 118.068C385.742 117.196 384.82 115.841 384.334 114.001C383.655 111.484 383.315 109.354 383.315 107.612C383.315 103.545 383.412 100.495 383.606 98.4623C383.897 95.3642 384.334 92.1209 384.917 88.7323C385.693 84.4724 386.373 81.229 386.955 79.0022L387.392 76.6786C387.004 76.8723 386.712 77.1627 386.518 77.55C386.421 77.9373 386.324 78.1793 386.227 78.2761C385.742 78.9538 385.305 79.6315 384.917 80.3093C384.625 80.8902 384.286 81.4711 383.897 82.052C383.121 83.5042 381.859 85.6826 380.112 88.5871C379.141 90.0393 378.219 91.2011 377.345 92.0725C376.471 92.9438 375.403 93.2827 374.141 93.089C371.326 92.7986 369.142 91.5884 367.589 89.4584L367.007 88.2966C366.91 88.1998 366.861 88.103 366.861 88.0062C366.861 87.8125 366.813 87.6673 366.715 87.5705C366.586 87.0969 366.485 86.5946 366.413 86.0636C365.966 87.1316 365.759 87.6339 365.791 87.5705C363.364 93.089 361.859 96.4776 361.277 97.7362C360.209 100.253 358.607 103.061 356.472 106.159C354.336 109.257 352.54 110.952 351.084 111.242C349.919 111.436 348.803 111.291 347.735 110.806C346.764 110.322 346.036 109.548 345.551 108.483C345.163 107.612 344.871 106.643 344.677 105.578C344.192 103.448 343.949 101.464 343.949 99.6241C343.852 98.0751 343.998 95.6547 344.386 92.3629L344.532 90.9107L343.804 91.782C342.93 93.0406 341.716 94.3961 340.163 95.8483C338.61 97.2037 337.154 98.1235 335.795 98.6076C335.213 98.8012 334.727 98.898 334.339 98.898C333.465 98.898 332.64 98.656 331.864 98.1719L330.116 97.3006C329.623 96.9819 329.203 96.594 328.857 96.1367C328.602 96.7407 328.382 97.3223 328.195 97.8815L326.448 101.803C325.477 104.029 324.263 106.353 322.807 108.773C321.837 110.516 321.06 111.775 320.478 112.549ZM307.955 23.8169C308.216 23.3835 308.632 22.3682 309.204 20.771C312.122 20.1027 314.353 19.7168 315.897 19.6131C315.084 22.5983 314.184 25.3066 313.197 27.7379C312.323 30.352 311.159 33.4017 309.702 36.8871C307.955 40.6629 306.353 43.7126 304.897 46.0362L299.947 53.5879L299.073 54.6045L298.782 54.4593C298.879 54.2656 298.927 53.9752 298.927 53.5879C300.481 47.7789 301.403 44.3419 301.694 43.277C302.471 40.2757 303.296 37.4196 304.169 34.7087C304.752 33.1596 305.14 31.9494 305.334 31.0781L306.499 27.5927L307.955 23.8169ZM317.42 13.2155C317.377 13.4201 317.334 13.6238 317.291 13.8264C316.724 13.9243 316.204 14.0111 315.729 14.0868C314.774 14.325 313.427 14.5958 311.688 14.8992C312.773 12.7482 313.859 10.9284 314.944 9.43961C315.915 8.08418 316.692 7.16442 317.274 6.68034C317.565 6.77716 317.711 7.0192 317.711 7.40647C317.711 10.0205 317.614 11.9568 317.42 13.2155ZM339.581 89.7489L336.96 92.2177L336.377 92.6534C336.28 92.0725 336.329 91.0559 336.523 89.6036C336.911 87.9578 337.591 85.4889 338.562 82.1972C339.338 79.8736 340.163 77.8404 341.037 76.0977C342.299 73.3869 343.075 71.741 343.367 71.1601C344.629 68.4492 345.842 66.4161 347.007 65.0607L347.589 64.625L347.881 64.7702C348.948 67.0938 349.482 68.9333 349.482 70.2888C349.482 70.676 349.385 71.3537 349.191 72.3219C348.609 74.8391 348.075 76.7755 347.589 78.1309C347.104 79.4863 346.23 81.0838 344.968 82.9233C343.221 85.6342 341.425 87.9094 339.581 89.7489Z" fill="#F53A97"/>
<path fill-rule="evenodd" clip-rule="evenodd" d="M95.0831 128.379C94.1123 128.572 93.3843 128.669 92.8989 128.669C91.0545 128.669 89.3557 127.895 87.8026 126.345C87.3172 125.765 86.8804 125.038 86.4921 124.167C86.1038 123.393 85.764 122.521 85.4728 121.553C84.8904 119.326 84.5992 116.567 84.5992 113.275C84.5992 111.242 84.6477 109.741 84.7448 108.773C84.9389 105.772 85.3758 101.222 86.0553 95.1222C86.8318 89.0227 87.5599 84.1819 88.2394 80.5997L90.2779 69.7079C90.7633 67.0938 91.8311 62.5434 93.4813 56.0567L94.7918 50.6834L96.8304 43.1317C97.5099 41.0986 99.0145 35.4348 101.344 26.1404C100.665 27.3022 99.7426 28.9965 98.5777 31.2233C97.5099 33.3533 96.8304 34.8539 96.5392 35.7253C94.8889 38.4361 92.996 42.1152 90.8604 46.7624L86.6377 55.1854C86.3465 55.7663 85.8611 56.8313 85.1816 58.3803C84.5021 59.9294 83.774 61.2848 82.9975 62.4466C82.6092 63.5116 81.2501 66.4645 78.9204 71.3053L75.717 78.1309C75.5228 78.5182 75.2802 78.9538 74.9889 79.4379C74.6977 79.922 74.4065 80.5513 74.1153 81.3258L70.475 88.2966L69.4558 90.3298C69.1646 91.1043 68.9704 91.6852 68.8733 92.0725C67.5143 94.7833 65.6214 98.4139 63.1946 102.964C60.8648 107.418 59.0204 110.952 57.6614 113.566C57.0789 114.243 56.5451 114.873 56.0597 115.454C55.6714 116.035 55.3316 116.519 55.0404 116.906V116.761C53.5843 117.922 52.2253 118.503 50.9633 118.503C49.7985 118.503 48.8277 118.455 48.0512 118.358C47.2746 118.164 46.5465 117.777 45.867 117.196C45.2846 116.712 44.9448 116.035 44.8478 115.163C44.6536 113.033 44.5565 111.581 44.5565 110.806L44.7021 104.707C45.3816 100.35 45.9156 96.284 46.3038 92.5081C46.498 90.5718 46.8863 87.7641 47.4687 84.0851L48.0512 79.8736C48.3424 78.7118 48.5365 77.3564 48.6336 75.8073C48.8278 74.1614 48.9734 73.048 49.0704 72.4671V72.6124C49.7499 69.611 50.1868 66.7065 50.3809 63.8989L52.2738 54.4593L53.1475 48.9407C53.5358 46.5203 53.8756 44.584 54.1668 43.1317C54.3609 41.1954 54.7492 38.775 55.3316 35.8705C55.5258 34.9023 55.817 33.2565 56.2053 30.9329C56.5936 28.5125 56.8363 26.4309 56.9333 24.6882L57.2246 21.6385C57.3216 20.6703 57.4187 19.5569 57.5158 18.2983C57.6129 16.9429 57.6614 15.4422 57.6614 13.7964L57.5158 10.6014C57.5158 9.92369 57.4672 9.3428 57.3702 8.85871C56.7877 9.14916 56.0597 9.73006 55.186 10.6014C54.4094 11.4728 53.8755 12.1989 53.5843 12.7798V12.925C51.2546 17.3786 49.2646 21.5901 47.6143 25.5596L42.8092 37.6132L39.7514 46.0362C39.169 47.5853 38.6351 48.9407 38.1497 50.1025C37.6643 51.1675 37.2275 52.1357 36.8392 53.007V53.1522C36.7422 53.7331 36.4995 54.4593 36.1112 55.3306C35.82 56.1051 35.5773 56.686 35.3831 57.0733C35.0919 57.3638 34.8492 57.7994 34.6551 58.3803C34.558 58.9612 34.4609 59.3485 34.3639 59.5421C33.7814 60.8976 33.2961 62.1078 32.9078 63.1728C32.5195 64.1409 32.1797 65.0607 31.8885 65.932C31.5002 67.0938 30.9663 68.4008 30.2868 69.8531L29.1219 72.9028C27.3746 77.3564 26.0156 80.6481 25.0448 82.7781C24.8507 83.359 23.977 85.5858 22.4239 89.4584C21.259 92.5565 19.6088 95.9935 17.4731 99.7694C16.9878 101.028 16.1627 102.722 14.9978 104.852C14.2212 106.111 13.1534 107.515 11.7944 109.064C11.5032 109.548 10.9207 109.887 10.0471 110.08C9.75584 110.274 9.41608 110.371 9.02779 110.371C8.73657 110.468 8.39682 110.564 8.00853 110.661H8.15414L6.69804 110.806C5.92146 110.806 4.90219 110.564 3.64024 110.08C2.57243 109.596 1.89292 108.967 1.6017 108.192C0.825118 106.256 0.485366 104.707 0.582439 103.545V103.4L0.291215 100.786C0.0970693 99.8178 0 98.8496 0 97.8815V93.8152C0 91.782 0.0970693 89.8941 0.291215 88.1514C0.388288 84.9565 0.679514 81.7615 1.16488 78.5666L3.49463 63.1728C4.07707 60.7523 4.46536 58.7192 4.65951 57.0733C4.85365 56.2988 5.0478 55.3306 5.24195 54.1688C5.43609 52.8134 6.06707 50.0541 7.13487 45.891L8.15414 41.6795C8.54243 40.4209 9.31902 38.6782 10.4839 36.4514C11.6488 34.2246 12.4739 32.966 12.9592 32.6756C13.7358 32.0947 14.8522 31.8042 16.3083 31.8042C18.541 31.8042 19.6088 32.5787 19.5117 34.1278C19.4146 35.8705 19.0749 37.6616 18.4924 39.5011C17.91 42.4056 16.8422 46.5687 15.289 51.9904C14.6095 56.1536 13.5417 62.6403 12.0856 71.4506C10.6295 80.2609 9.75584 86.0698 9.46462 88.8775C9.46462 89.7489 9.36755 90.8623 9.17341 92.2177C8.97926 94.5413 8.88218 96.1872 8.88218 97.1553V99.3337C8.97926 100.011 8.97926 100.544 8.88218 100.931H9.31901C9.90145 100.931 10.2897 100.786 10.4839 100.496C10.7751 100.205 10.9207 99.963 10.9207 99.7694C11.309 98.898 11.7944 97.833 12.3768 96.5744C13.0563 95.219 13.5902 94.0572 13.9785 93.089C15.5317 90.475 16.8907 87.5221 18.0556 84.2303C19.6088 80.7449 20.8222 77.55 21.6958 74.6455L24.608 67.9652L25.4817 65.0607C26.2583 63.2212 27.1805 60.7523 28.2483 57.6542L29.85 53.5879C30.6265 52.2325 31.3061 50.7318 31.8885 49.086C32.568 47.3433 33.0534 46.1815 33.3446 45.6006L35.2375 40.3725C35.7229 39.3075 36.3539 37.6132 37.1304 35.2896L40.9163 25.85L43.246 20.3315C43.4402 19.9442 43.9256 18.8792 44.7021 17.1365C46.6436 12.683 48.2938 9.34279 49.6529 7.11601C49.847 6.82556 50.2353 6.19625 50.8177 5.22809C51.4973 4.16311 52.2738 3.19495 53.1475 2.3236C53.6329 1.83952 54.2153 1.50066 54.8948 1.30702C55.6714 1.11339 56.1568 1.01658 56.3509 1.01658C57.3216 0.822947 57.9526 0.726131 58.2438 0.726131C62.2238 0.532495 64.7477 2.12997 65.8155 5.51855C66.3009 6.68034 66.6407 8.51985 66.8348 11.0371C66.9319 11.9084 66.9804 13.2155 66.9804 14.9582C66.9804 18.9276 66.5436 23.9621 65.6699 30.0615C65.4758 31.4169 65.136 34.1278 64.6507 38.1941C64.3594 40.1304 63.9711 42.212 63.4858 44.4388C63.2916 46.2783 62.7577 49.57 61.8841 54.314C60.9133 59.1549 60.2824 62.9307 59.9911 65.6416C59.4087 67.7715 58.9719 70.1919 58.6807 72.9028C58.4865 75.5168 58.3409 77.1627 58.2438 77.8404V77.6952C57.4672 80.3093 57.0304 82.8265 56.9333 85.2469C56.6421 86.2151 56.2053 88.9743 55.6229 93.5247C55.1375 97.9783 54.8463 100.35 54.7492 100.641L54.458 103.255L54.3124 105.578C55.7685 103.448 57.6614 100.253 59.9911 95.9935C62.418 91.6368 63.8741 88.6839 64.3594 87.1348C67.8541 80.6481 70.8633 74.6939 73.3872 69.2722L80.0853 55.4758C80.7648 53.9268 81.3958 52.5229 81.9782 51.2643C82.6577 50.0057 83.2402 48.8923 83.7255 47.9242C86.0553 43.277 87.9967 39.1623 89.5499 35.5801C92.1709 31.1265 94.7918 26.2373 97.4128 20.9124L99.3057 17.1365L105.276 5.37331V5.22809C105.558 4.47637 106.115 3.58785 106.947 2.56254C107.692 2.0102 108.299 1.6401 108.77 1.45225C109.256 1.1618 109.838 1.06498 110.518 1.1618C112.459 1.54907 113.673 1.88793 114.158 2.17838C115.032 2.56564 115.468 3.09813 115.468 3.77585V4.50197C115.565 4.6956 115.565 4.93765 115.468 5.22809C115.565 6.58352 115.517 7.98736 115.323 9.43961C115.129 10.8919 114.983 11.86 114.886 12.3441V12.1989C114.304 14.232 113.673 16.6524 112.993 19.4601C112.605 20.6219 112.119 22.3646 111.537 24.6882L109.79 31.2233C109.013 34.1278 108.382 36.3062 107.897 37.7584L107.169 40.6629C106.78 42.5992 106.392 44.0999 106.004 45.1649C105.033 49.6184 104.256 52.7166 103.674 54.4593C103.577 55.0402 103.334 55.9115 102.946 57.0733C102.655 58.2351 102.461 59.3001 102.364 60.2683L101.635 63.4632C98.9174 75.6621 97.4613 82.5844 97.2672 84.2303C96.6848 88.103 95.9082 93.912 94.9374 101.657C93.9667 109.306 93.4813 115.066 93.4813 118.939L93.6269 121.117L94.0638 122.86L94.6462 123.296C95.2287 123.296 95.5199 123.151 95.5199 122.86C97.6555 121.214 99.3057 119.375 100.471 117.342L102.364 114.582L103.965 112.113C104.451 111.339 104.887 110.564 105.276 109.79C105.664 109.015 106.052 108.289 106.441 107.612C108.091 104.901 109.838 101.657 111.683 97.8815C112.944 95.8483 114.352 93.1859 115.905 89.8941L122.603 77.6952C124.135 75.0028 125.311 72.8025 126.131 71.0946C126.378 70.46 126.629 69.8525 126.884 69.2722C127.855 66.9486 128.631 65.2059 129.214 64.0441C129.99 62.8823 130.621 62.0594 131.107 61.5753C131.592 61.0912 132.077 60.8492 132.563 60.8492C132.854 60.8492 133.291 60.9944 133.873 61.2848C134.262 61.4785 135.184 61.8173 136.64 62.3014H136.931C137.513 61.8173 138.241 61.5753 139.115 61.5753C139.795 61.5753 140.329 61.6721 140.717 61.8657C140.814 61.9625 140.911 62.011 141.008 62.011C141.202 62.011 141.348 62.0594 141.445 62.1562C142.513 62.4466 143.289 63.1728 143.775 64.3345C144.648 66.0772 145.085 67.9652 145.085 69.9983V73.4837C145.279 73.5805 145.425 73.6289 145.522 73.6289H145.959C148.386 73.1448 150.667 72.3703 152.802 71.3053C154.518 70.45 155.889 69.4072 156.915 68.1772C156.341 67.926 155.751 67.6617 155.144 67.3843C153.299 66.4161 151.795 65.4479 150.63 64.4798C146.941 61.5753 145.242 57.7994 145.533 53.1522C145.63 51.9904 145.922 50.7318 146.407 49.3764C147.378 46.8592 148.591 44.7292 150.047 42.9865C151.212 41.6311 152.474 40.6145 153.833 39.9368C154.998 39.1623 156.357 38.775 157.91 38.775C159.269 38.775 160.58 39.1139 161.842 39.7916C163.104 40.3725 164.074 41.0986 164.754 41.9699C166.016 43.6158 166.695 45.4553 166.792 47.4885C167.084 51.3611 166.55 55.2822 165.191 59.2517C164.802 60.5103 164.414 61.6721 164.026 62.7371C163.637 63.8021 163.298 64.7702 163.007 65.6416C162.909 65.7384 162.861 65.8836 162.861 66.0772C162.861 66.1741 162.812 66.2709 162.715 66.3677L163.735 66.9486L172.908 70.1435C174.267 70.7244 175.286 71.1117 175.966 71.3053C177.034 71.499 178.053 72.3703 179.024 73.9194C179.218 74.3066 179.315 74.5971 179.315 74.7907C179.315 75.178 179.169 75.6137 178.878 76.0977C178.587 76.7755 178.198 77.4532 177.713 78.1309C176.645 79.7768 175.529 81.8583 174.364 84.3755C173.587 86.2151 172.52 89.0712 171.161 92.9438L169.559 98.6076C168.977 100.931 168.588 102.674 168.394 103.836C168.297 104.32 167.86 107.127 167.084 112.259C166.889 113.517 166.792 115.405 166.792 117.922C166.792 118.697 166.841 119.326 166.938 119.81H167.084C167.278 119.617 167.375 119.472 167.375 119.375L168.54 115.018C169.51 111.145 171.015 106.789 173.054 101.948C174.995 97.1069 176.5 93.4763 177.567 91.0559C177.762 90.5718 178.004 89.9909 178.296 89.3132C178.684 88.6355 179.072 87.8609 179.46 86.9896C180.237 85.6342 180.771 84.6176 181.062 83.9399C182.033 82.1004 183.489 79.6315 185.43 76.5334C186.652 74.6193 187.751 72.9311 188.728 71.4687C188.909 71.0388 189.098 70.5971 189.295 70.1435C190.168 68.2072 191.188 66.3193 192.353 64.4798C192.547 64.0925 193.517 62.5434 195.265 59.8326L196.575 58.2351L199.487 55.0402L202.108 53.007C203.37 51.942 205.215 51.0707 207.642 50.393C208.03 50.1993 208.564 50.1025 209.243 50.1025C210.02 50.1025 210.602 50.1993 210.991 50.393L212.883 51.1191C213.369 51.3127 213.709 51.5064 213.903 51.7C214.971 52.6682 215.456 53.83 215.359 55.1854C214.971 57.3154 214.485 59.058 213.903 60.4135C212.835 62.8339 211.33 65.2543 209.389 67.6747C208.709 68.6429 207.981 69.4658 207.205 70.1435C204.487 72.6608 202.351 74.4519 200.798 75.5168C199.827 76.0977 198.371 76.8723 196.43 77.8404L195.556 78.2761L195.265 78.5666C194.391 80.8902 193.809 83.3106 193.517 85.8278L193.372 89.6036C193.275 91.6368 193.614 93.8636 194.391 96.284C194.488 96.4776 194.585 96.7196 194.682 97.0101C194.779 97.2037 194.876 97.4458 194.974 97.7362C195.653 98.7044 196.478 99.1401 197.449 99.0432C198.614 99.0432 199.682 98.898 200.652 98.6076C203.856 97.9299 207.205 95.9935 210.699 92.7986C212.641 91.0559 214.631 88.7807 216.669 85.973C217.834 84.424 219.387 82.0036 221.329 78.7118C222.397 76.8723 223.95 73.5321 225.988 68.6913C226.182 68.1104 226.522 67.6263 227.008 67.239C227.59 66.8518 228.172 66.6581 228.755 66.6581C229.337 66.6581 229.774 66.9002 230.065 67.3843C230.357 67.8683 230.357 68.5461 230.065 69.4174C229.192 72.0315 227.736 75.3232 225.697 79.2927C223.756 83.1653 221.814 86.4571 219.873 89.168C219.387 89.8457 218.562 90.7654 217.397 91.9272C214.971 94.6381 212.641 96.8165 210.408 98.4623C207.69 100.399 205.36 101.706 203.419 102.383C201.672 102.868 200.118 103.11 198.759 103.11C196.235 103.11 193.566 102.335 190.751 100.786C188.712 99.6241 187.256 97.9299 186.383 95.7031C185.606 93.9604 185.169 92.2177 185.072 90.475C184.975 89.7973 184.926 88.8291 184.926 87.5705C184.926 87.3671 184.928 87.1725 184.93 86.9865C184.337 88.0624 183.824 89.0316 183.392 89.8941C182.906 91.0559 182.47 92.0241 182.081 92.7986L180.334 96.8649L177.567 103.836C175.529 108.87 174.073 113.421 173.199 117.487C172.617 119.714 171.986 122.666 171.306 126.345C171.015 127.604 170.578 128.814 169.996 129.976C169.219 131.428 168.103 132.009 166.647 131.719C164.997 131.525 163.637 130.993 162.57 130.121C161.114 129.056 160.191 127.749 159.803 126.2C158.735 122.812 158.201 119.472 158.201 116.18C158.201 113.469 158.396 110.952 158.784 108.628C158.978 106.692 159.463 104.126 160.24 100.931C161.308 95.9935 162.424 91.8304 163.589 88.4418C164.56 85.3437 165.822 82.1488 167.375 78.857C167.763 77.9857 168.151 77.2595 168.54 76.6786C168.928 76.0009 169.268 75.42 169.559 74.9359L169.85 74.3551L170.433 73.4837L169.85 73.1933L161.405 69.9983C160.942 69.8284 160.465 69.6463 159.972 69.452C159.678 70.1473 159.133 70.8619 158.336 71.5958C156.88 73.1448 154.938 74.5487 152.511 75.8073C150.084 76.9691 147.463 77.6468 144.648 77.8404C144.551 78.3245 144.309 79.3895 143.92 81.0354C143.338 83.8431 142.464 86.5539 141.299 89.168L139.698 92.7986C138.727 95.0254 137.271 96.9133 135.329 98.4623L133.145 99.7694C132.466 100.157 131.689 100.35 130.815 100.35C130.33 100.35 129.942 100.302 129.651 100.205C127.515 99.5273 125.962 98.5108 124.991 97.1553C124.603 96.6713 124.117 95.9451 123.535 94.977L123.098 94.2508C122.562 92.6479 122.273 90.8402 122.23 88.8278C121.668 90.0883 120.919 91.5087 119.982 93.089C119.594 93.9604 119.206 94.7349 118.817 95.4126C118.429 96.0903 118.089 96.7197 117.798 97.3006L111.1 109.79L108.77 114.147C106.538 118.116 103.577 121.892 99.8882 125.474H99.7426C98.7718 126.83 97.2187 127.798 95.0831 128.379ZM130.961 94.5413C131.446 94.3477 131.883 94.0572 132.272 93.6699C132.757 93.2827 133.097 92.9922 133.291 92.7986C134.262 91.8304 135.329 90.1845 136.494 87.861C137.659 85.8278 138.678 83.0201 139.552 79.4379C139.94 78.0825 140.134 77.0659 140.134 76.3882C139.746 76.0977 139.309 75.8073 138.824 75.5168C138.436 75.2264 138.047 74.8875 137.659 74.5003C137.077 74.0162 136.3 73.1933 135.329 72.0315C135.135 72.2251 134.941 72.5639 134.747 73.048L133.436 76.6786C132.466 79.4863 131.543 82.8749 130.67 86.8444C130.476 88.0062 130.379 89.2648 130.379 90.6202V93.2343C130.379 93.912 130.573 94.3477 130.961 94.5413ZM140.717 72.4671C140.814 72.0799 140.862 71.3537 140.862 70.2888C140.862 69.0301 140.814 68.1588 140.717 67.6747C140.523 67.2874 140.426 66.9002 140.426 66.5129L139.989 67.0938C139.698 67.7715 139.552 68.5461 139.552 69.4174C139.552 70.2888 139.795 71.2085 140.28 72.1767C140.28 72.2735 140.329 72.3219 140.426 72.3219C140.523 72.3219 140.62 72.3703 140.717 72.4671ZM160.531 58.2351C159.755 60.7523 158.978 62.8339 158.201 64.4798L157.473 64.1893C156.114 63.4148 155.338 62.9307 155.144 62.7371C152.523 60.8976 151.309 58.2835 151.503 54.8949C151.6 52.0873 152.62 49.328 154.561 46.6171L156.454 44.1483C157.328 43.277 158.59 42.6961 160.24 42.4056C161.211 43.3738 161.793 44.6808 161.987 46.3267C162.084 46.9076 162.133 47.8273 162.133 49.086C162.133 50.2478 162.084 51.1675 161.987 51.8452C161.793 53.5879 161.308 55.7179 160.531 58.2351ZM198.177 71.741C199.439 71.3537 201.429 69.6595 204.147 66.6581C206.477 64.1409 208.321 60.9944 209.68 57.2185C208.612 57.7026 207.836 58.2835 207.35 58.9612C207.059 59.3485 206.719 59.6874 206.331 59.9778C206.04 60.1714 205.749 60.4619 205.457 60.8492L204.147 62.3014C202.788 64.2377 201.817 65.69 201.235 66.6581L199.487 69.2722C199.39 69.4658 198.953 70.2888 198.177 71.741Z" fill="#F53A97"/>
<path d="M106.947 2.56254C106.924 2.57953 106.901 2.5967 106.877 2.61405L107.023 2.46882C106.997 2.50019 106.972 2.53142 106.947 2.56254Z" fill="#F53A97"/>
<path fill-rule="evenodd" clip-rule="evenodd" d="M104.697 273.749C105.473 273.942 106.007 274.039 106.298 274.039C107.852 274.523 109.065 274.087 109.939 272.732C110.327 272.054 110.764 271.328 111.249 270.554C111.734 269.779 112.22 268.908 112.705 267.94C113.385 266.584 113.967 265.326 114.453 264.164C114.938 263.002 115.375 262.034 115.763 261.259C117.413 257.387 118.724 253.562 119.694 249.786C121.442 243.009 122.558 237.878 123.044 234.393C123.238 233.231 123.432 232.456 123.626 232.069L126.393 224.517L127.121 222.339C127.509 221.468 127.849 220.451 128.14 219.289C128.431 218.708 128.819 218.37 129.305 218.273C129.499 218.273 129.644 218.224 129.742 218.127C131.003 218.127 132.12 217.837 133.091 217.256L134.255 216.966C135.323 216.772 137.071 216.288 139.497 215.513C140.08 215.32 140.662 215.175 141.245 215.078L142.992 214.497C145.031 213.819 147.263 212.996 149.69 212.028C153.476 210.963 156.388 209.801 158.427 208.543C159.203 208.059 159.883 207.72 160.465 207.526L161.921 206.8C162.115 206.606 162.358 206.461 162.649 206.364C162.941 206.171 163.232 205.929 163.523 205.638C164.105 205.251 164.154 204.815 163.669 204.331L162.941 203.605C162.552 203.121 161.824 202.685 160.756 202.298C160.174 202.104 159.689 202.008 159.3 202.008C158.815 202.008 158.378 202.056 157.99 202.153L157.116 202.443C156.534 202.637 155.903 202.879 155.223 203.169L153.039 203.895L147.943 205.493C147.263 205.687 146.487 205.977 145.613 206.364C144.836 206.655 143.914 206.945 142.846 207.236C142.555 207.236 142.215 207.332 141.827 207.526C140.468 208.107 137.944 208.93 134.255 209.995C133.479 210.285 132.702 210.431 131.926 210.431H131.343L131.78 208.688L134.401 200.846L136.44 194.456L137.459 190.68L140.08 181.967C140.274 181.482 140.614 180.417 141.099 178.772L142.992 172.672L144.885 165.992C145.079 165.217 145.516 163.62 146.195 161.199C146.875 158.779 147.312 156.552 147.506 154.519L148.234 154.229L152.893 153.212C153.67 153.018 155.175 152.68 157.407 152.195L162.504 151.179C165.61 150.792 167.94 150.453 169.493 150.162C171.726 149.872 175.317 149.146 180.268 147.984C180.656 147.887 181.336 147.548 182.307 146.967C182.792 146.774 182.938 146.435 182.743 145.951C182.452 144.692 181.773 143.869 180.705 143.482C180.414 143.385 179.977 143.288 179.394 143.192C178.909 142.998 178.521 142.804 178.23 142.611C177.841 142.417 177.21 142.32 176.337 142.32C175.56 142.32 174.978 142.369 174.589 142.465C172.357 142.853 170.803 143.095 169.93 143.192C169.347 143.288 168.474 143.385 167.309 143.482C166.144 143.579 165.125 143.772 164.251 144.063C164.057 144.16 163.814 144.208 163.523 144.208C162.358 144.305 161.048 144.499 159.591 144.789C158.232 145.079 157.31 145.273 156.825 145.37C154.981 145.757 153.476 146.096 152.311 146.386C150.272 146.774 147.7 147.306 144.594 147.984C142.555 148.371 139.594 149.049 135.712 150.017L131.78 150.888C130.906 151.179 129.984 151.469 129.013 151.76C128.14 151.953 127.218 152.195 126.247 152.486C125.859 152.583 125.47 152.728 125.082 152.922C124.694 153.115 124.305 153.26 123.917 153.357C121.49 154.035 119.549 154.858 118.093 155.826L117.656 155.971C116.879 156.165 115.569 156.794 113.724 157.859C112.074 158.924 110.909 159.989 110.23 161.054C109.453 162.022 109.065 162.942 109.065 163.813L109.211 164.685C109.211 165.072 109.259 165.363 109.356 165.556C109.55 166.234 109.793 166.718 110.084 167.008C111.443 168.364 112.463 169.187 113.142 169.477L114.889 170.349L119.694 172.236C120.665 172.624 121.733 172.479 122.898 171.801C123.286 171.414 123.286 171.075 122.898 170.784C122.024 169.719 121.151 169.09 120.277 168.896C119.597 168.703 118.966 168.509 118.384 168.315L116.928 167.589C116.637 167.492 116.2 167.25 115.617 166.863C115.229 166.67 115.035 166.428 115.035 166.137C115.035 165.75 115.181 165.411 115.472 165.12C116.248 164.056 117.122 163.329 118.093 162.942C120.325 161.78 122.267 161.006 123.917 160.619L124.791 160.328C125.179 160.134 125.713 159.941 126.393 159.747C127.072 159.554 127.606 159.36 127.994 159.166C130.518 158.295 134.401 157.278 139.643 156.117C140.031 155.923 140.371 155.923 140.662 156.117C140.565 156.213 140.517 156.359 140.517 156.552C140.517 156.649 140.468 156.746 140.371 156.843L137.313 164.83C136.731 166.282 135.954 168.461 134.983 171.365C134.498 172.624 133.867 174.512 133.091 177.029L131.78 181.095L126.538 197.07L124.354 203.169C123.966 204.622 123.432 206.267 122.752 208.107L121.151 212.899C120.859 213.384 120.471 213.48 119.986 213.19C119.792 212.996 119.646 212.899 119.549 212.899C117.413 210.479 114.453 209.269 110.667 209.269C109.502 209.269 108.628 209.317 108.046 209.414C106.493 209.704 104.891 210.14 103.241 210.721C102.464 211.011 101.59 211.738 100.62 212.899C100.231 213.48 100.037 214.11 100.037 214.787C100.037 215.562 100.328 216.24 100.911 216.82C101.882 217.789 102.464 218.321 102.658 218.418C104.697 219.289 105.959 219.822 106.444 220.015C107.609 220.403 108.483 220.596 109.065 220.596C109.744 220.693 110.812 220.742 112.268 220.742C114.113 220.742 116.006 220.596 117.947 220.306L118.238 220.451C118.335 220.838 118.287 221.226 118.093 221.613L115.617 228.584C113.482 234.586 111.832 239.088 110.667 242.09C109.016 246.737 107.949 249.69 107.463 250.948C105.91 255.208 104.6 259.662 103.532 264.309C102.949 266.342 102.61 267.988 102.513 269.247C102.318 270.215 102.367 271.086 102.658 271.861C102.949 272.829 103.629 273.458 104.697 273.749ZM108.628 215.078C108.24 215.078 107.949 215.029 107.755 214.933C107.755 214.545 107.997 214.255 108.483 214.061C110.424 213.287 111.929 212.899 112.996 212.899C113.773 212.996 114.258 213.093 114.453 213.19C114.744 213.287 115.229 213.626 115.909 214.206C115.035 214.497 114.161 214.642 113.288 214.642C111.929 214.836 110.958 214.933 110.375 214.933L108.628 215.078Z" fill="#F53A97"/>
<path fill-rule="evenodd" clip-rule="evenodd" d="M162.884 256.176C161.136 256.273 159.632 255.547 158.37 253.998C157.69 253.32 157.156 252.062 156.768 250.222C156.574 249.157 156.477 247.56 156.477 245.43C156.477 243.687 156.525 242.38 156.622 241.509C156.622 241.315 156.914 239.088 157.496 234.828L157.933 231.779L159.826 222.049L161.573 215.223C161.961 213.384 162.495 211.108 163.175 208.397L163.32 207.962L164.777 202.734C165.553 199.829 166.087 197.651 166.378 196.199L167.398 192.568C167.495 192.374 167.64 192.035 167.834 191.551C168.029 191.067 168.174 190.632 168.271 190.244C168.465 189.663 169.145 187.437 170.31 183.564C171.62 179.643 172.389 177.388 172.616 176.797C172.685 176.632 173.518 174.579 175.115 170.639L176.571 167.008C178.221 163.329 179.726 160.425 181.085 158.295C182.056 156.649 183.026 155.294 183.997 154.229C184.482 153.551 185.502 152.631 187.055 151.469H187.2C188.074 150.888 189.482 150.598 191.423 150.598C192.103 150.598 192.831 150.695 193.607 150.888C194.772 151.179 195.5 151.808 195.791 152.776C196.374 153.841 196.811 155.294 197.102 157.133C197.393 160.522 197.102 164.443 196.228 168.896C196.034 169.671 195.791 170.591 195.5 171.656C195.306 172.721 195.112 173.979 194.918 175.431C194.141 178.82 193.316 181.821 192.442 184.435C191.86 186.372 190.938 188.889 189.676 191.987C189.385 192.568 189.093 193.1 188.802 193.585L188.22 195.037C186.278 198.909 184.531 202.008 182.978 204.331L179.92 208.688C179.338 209.559 178.27 210.769 176.717 212.319C175.455 213.771 173.999 215.078 172.348 216.24L169.727 217.692C169.436 218.563 169.096 219.967 168.708 221.903C168.126 224.033 167.737 225.873 167.543 227.422L166.961 230.472C166.864 231.246 166.621 232.408 166.233 233.957L165.213 242.525C164.825 245.236 164.631 247.318 164.631 248.77L164.922 251.384C165.699 251.093 166.378 250.609 166.961 249.932C168.611 248.479 169.776 247.269 170.455 246.301L174.387 241.363C174.969 240.589 175.358 239.96 175.552 239.476L182.541 228.438C184.954 224.719 186.982 221.411 188.624 218.515C189.073 217.04 189.582 215.555 190.151 214.061C190.443 213.093 190.831 212.028 191.316 210.866C191.802 209.704 192.141 208.833 192.335 208.252C192.724 207.09 193.792 206.51 195.539 206.51C196.607 206.51 197.383 206.703 197.869 207.09C198.645 207.575 198.985 208.252 198.888 209.124C198.694 211.06 198.451 212.512 198.16 213.48C197.869 214.642 197.383 216.869 196.704 220.161L194.956 227.712L193.792 234.393V234.683C193.792 234.78 193.889 234.78 194.083 234.683C194.956 234.102 195.442 233.763 195.539 233.667C197.383 232.117 199.47 230.036 201.8 227.422L204.712 223.936C207.333 220.742 209.469 217.643 211.119 214.642L212.138 212.609L213.594 209.124C213.983 208.059 214.905 207.526 216.361 207.526C217.429 207.526 218.351 207.817 219.128 208.397L220.438 209.559C220.535 209.85 220.584 210.285 220.584 210.866C220.584 211.544 220.535 212.028 220.438 212.319L219.128 217.692L217.817 222.92L216.943 227.277L215.779 234.247L215.196 238.459L215.051 240.056L215.196 241.799C215.293 241.702 215.39 241.654 215.487 241.654C215.682 241.654 215.827 241.605 215.924 241.509C218.642 238.411 222.865 231.44 228.592 220.596C230.067 217.733 231.231 215.612 232.085 214.233L233.427 209.414L234.737 205.057C234.932 204.573 235.271 203.508 235.757 201.862C236.824 198.474 238.135 194.601 239.688 190.244L242.018 184.145C242.697 182.402 243.328 180.902 243.911 179.643L245.076 176.884C246.726 173.301 248.182 170.397 249.444 168.17C251.482 164.588 253.424 161.635 255.268 159.312C257.016 157.278 257.841 156.31 257.744 156.407C259.879 154.471 261.287 153.309 261.966 152.922C262.258 152.728 262.694 152.534 263.277 152.341C264.442 151.953 265.315 151.711 265.898 151.615C266.189 151.518 266.577 151.469 267.063 151.469C268.325 151.469 269.49 151.857 270.557 152.631C271.625 153.406 272.402 154.422 272.887 155.681C273.275 156.746 273.47 158.343 273.47 160.473C273.372 162.506 272.984 164.83 272.305 167.444C271.043 172.285 269.295 176.98 267.063 181.531C265.315 185.016 263.665 188.114 262.112 190.825C261.432 192.084 260.316 193.972 258.763 196.489C257.307 199.006 255.317 201.862 252.793 205.057C250.269 208.252 248.619 210.237 247.842 211.011C247.939 210.915 247.114 211.883 245.367 213.916L243.037 216.24L240.271 218.854C239.688 219.435 239.397 219.967 239.397 220.451L237.795 226.696C237.698 227.664 237.455 228.777 237.067 230.036C237.261 230.23 237.601 230.326 238.086 230.326C241.775 228.39 246.143 225.631 251.191 222.049C256.239 218.466 260.025 215.513 262.549 213.19C262.733 212.992 262.917 212.809 263.101 212.64L263.999 209.414L265.31 205.057C265.504 204.573 265.844 203.508 266.329 201.862C267.397 198.474 268.707 194.601 270.26 190.244L272.59 184.145C273.27 182.402 273.901 180.902 274.483 179.643L275.648 176.884C277.298 173.301 278.754 170.397 280.016 168.17C282.055 164.588 283.996 161.635 285.841 159.312C287.588 157.278 288.413 156.31 288.316 156.407C290.452 154.471 291.859 153.309 292.539 152.922C292.83 152.728 293.267 152.534 293.849 152.341C295.014 151.953 295.888 151.711 296.47 151.615C296.761 151.518 297.15 151.469 297.635 151.469C298.897 151.469 300.062 151.857 301.13 152.631C302.198 153.406 302.974 154.422 303.459 155.681C303.848 156.746 304.042 158.343 304.042 160.473C303.945 162.506 303.557 164.83 302.877 167.444C301.615 172.285 299.868 176.98 297.635 181.531C295.888 185.016 294.237 188.114 292.684 190.825C292.005 192.084 290.888 193.972 289.335 196.489C287.879 199.006 285.889 201.862 283.365 205.057C280.841 208.252 279.191 210.237 278.415 211.011C278.512 210.915 277.687 211.883 275.939 213.916L273.609 216.24L270.843 218.854C270.26 219.435 269.969 219.967 269.969 220.451L268.368 226.696C268.27 227.664 268.028 228.777 267.639 230.036C267.834 230.23 268.173 230.326 268.659 230.326C272.348 228.39 276.716 225.631 281.764 222.049C286.811 218.466 290.597 215.513 293.121 213.19C293.314 212.983 293.506 212.792 293.699 212.616C294.194 211.595 294.728 210.527 295.3 209.414C295.591 208.833 295.785 208.494 295.882 208.397C296.27 208.01 296.95 207.817 297.921 207.817C298.891 207.817 299.814 208.059 300.687 208.543C301.561 208.93 302.24 209.511 302.726 210.285C303.114 211.06 303.163 211.834 302.871 212.609L298.94 223.065C297.775 227.035 297.047 229.891 296.756 231.633C296.562 232.408 296.562 233.037 296.756 233.521C298.115 232.553 299.765 231.004 301.706 228.874C302.774 227.712 303.794 226.357 304.764 224.808C305.735 223.259 306.366 222.242 306.657 221.758C307.919 219.822 309.812 216.336 312.336 211.302C312.627 210.915 312.87 210.431 313.064 209.85C313.355 209.172 313.549 208.736 313.646 208.543C314.035 207.768 314.811 207.381 315.976 207.381C317.044 207.381 318.063 207.72 319.034 208.397C320.102 208.978 320.684 209.656 320.781 210.431V211.447C320.781 211.931 320.684 212.851 320.49 214.206L317.723 225.389C317.626 225.582 317.578 225.97 317.578 226.551C317.641 226.506 317.706 226.472 317.772 226.447C322.238 221.699 327.95 213.466 327.099 205.829C326.722 202.451 324.852 198.948 322.806 195.117C318.667 187.366 313.807 178.267 319.136 166.119C321.879 159.866 325.709 156.144 329.556 154.004C328.114 155.878 327.167 158.18 327.63 160.81C332.052 155.577 334.941 154.326 337.822 153.08L338.056 152.979C340.253 152.026 342.74 151.646 345.505 151.787C346.413 151.919 347.298 152.08 348.159 152.269C345.259 152.845 342.545 154.408 340.286 157.385C349.258 152.2 358.929 156.406 365.707 162.364C368.354 165.361 370.326 168.665 370.326 170.657C368.809 169.901 364.411 168.615 358.95 169.523C352.125 170.657 338.083 175.903 346.315 192.325C349.576 198.829 351.711 203.087 349.306 209.749C348.362 211.7 347.039 213.881 345.178 215.938C341.643 219.846 332.171 225.779 324.831 226.384C327.028 227.901 329.827 228.078 332.732 227.511C331.415 228.207 330.04 228.915 328.647 229.632L328.646 229.632C323.563 232.251 318.224 235.001 314.444 237.767C314.234 238.108 314.065 238.532 313.938 239.04L311.753 247.172L308.841 257.629L307.385 262.421L305.783 268.23C304.424 272.877 303.357 276.363 302.58 278.686C301.804 281.203 301.173 283.043 300.687 284.205L299.522 287.254C299.037 289.191 298.455 290.788 297.775 292.047C297.484 292.531 297.144 293.354 296.756 294.516C295.688 297.033 294.232 300.083 292.387 303.665C291.223 305.988 289.621 308.409 287.582 310.926C286.417 312.088 285.447 312.911 284.67 313.395C283.796 313.879 283.02 314.073 282.34 313.976C281.758 313.976 281.127 313.879 280.447 313.685C279.768 313.492 279.283 313.346 278.991 313.25C277.826 312.766 276.953 311.846 276.37 310.49C275.788 309.232 275.4 307.199 275.206 304.391C275.206 301.583 275.497 298.727 276.079 295.823C277.729 287.4 280.496 279.509 284.379 272.151C285.835 269.343 287.194 266.826 288.456 264.599C288.747 264.018 289.038 263.486 289.33 263.002L289.912 261.84C291.756 258.645 294.086 255.111 296.901 251.239C298.163 249.496 300.153 247.076 302.871 243.977C303.745 242.913 304.327 241.702 304.619 240.347L306.512 233.521L306.948 231.779C306.948 231.585 306.997 231.343 307.094 231.052C307.288 230.665 307.385 230.278 307.385 229.891L306.512 230.762L302.726 234.974L300.542 237.297C300.153 237.684 299.474 238.169 298.503 238.749L297.775 239.04C297.29 239.524 296.659 239.766 295.882 239.766C295.203 239.766 294.572 239.621 293.989 239.33L292.533 238.895C291.465 238.701 290.446 238.023 289.475 236.861C289.281 236.668 289.087 236.281 288.893 235.7C288.31 233.376 288.068 231.585 288.165 230.326C288.359 227.712 288.65 225.679 289.038 224.227C289.266 223.319 289.544 222.411 289.871 221.502C288.415 222.614 286.878 223.764 285.258 224.953C280.113 228.632 275.357 231.488 270.989 233.521L271.425 234.538C272.396 235.893 273.221 237.636 273.901 239.766C274.289 241.025 274.58 242.38 274.774 243.832C274.969 246.156 275.066 247.995 275.066 249.351C275.066 250.803 275.017 251.916 274.92 252.691C274.435 256.176 273.27 259.275 271.425 261.985C270.455 263.05 269.532 263.922 268.659 264.599C267.882 265.374 266.911 265.761 265.747 265.761C264.388 265.761 262.689 265.422 260.65 264.745L260.213 264.454C259.146 263.68 258.272 262.615 257.592 261.259C257.495 260.582 257.253 259.71 256.864 258.645C256.476 257.677 256.282 256.806 256.282 256.031V255.45C256.282 254.966 256.233 254.385 256.136 253.708C256.039 253.03 256.039 252.449 256.136 251.965C256.136 249.448 256.282 246.882 256.573 244.268C256.67 242.816 256.913 240.734 257.301 238.023C257.495 236.861 257.689 235.942 257.884 235.264L257.301 234.538C256.816 233.86 256.573 233.182 256.573 232.505C256.573 231.343 257.059 230.423 258.029 229.745L258.612 229.31L259.049 228.729C259.146 228.632 259.194 228.487 259.194 228.293L260.068 224.227L259.049 223.791C259.243 222.823 259.34 222.242 259.34 222.049L260.796 221.322C260.796 221.012 260.858 220.64 260.983 220.206C259.043 221.714 256.944 223.296 254.686 224.953C249.541 228.632 244.784 231.488 240.416 233.521L240.853 234.538C241.824 235.893 242.649 237.636 243.328 239.766C243.717 241.025 244.008 242.38 244.202 243.832C244.396 246.156 244.493 247.995 244.493 249.351C244.493 250.803 244.445 251.916 244.348 252.691C243.862 256.176 242.697 259.275 240.853 261.985C239.882 263.05 238.96 263.922 238.086 264.599C237.31 265.374 236.339 265.761 235.174 265.761C233.815 265.761 232.116 265.422 230.078 264.745L229.641 264.454C228.573 263.68 227.7 262.615 227.02 261.259C226.923 260.582 226.68 259.71 226.292 258.645C225.904 257.677 225.71 256.806 225.71 256.031V255.45C225.71 254.966 225.661 254.385 225.564 253.708C225.467 253.03 225.467 252.449 225.564 251.965C225.564 249.448 225.71 246.882 226.001 244.268C226.098 242.816 226.341 240.734 226.729 238.023C226.923 236.861 227.117 235.942 227.311 235.264L226.729 234.538C226.702 234.5 226.675 234.462 226.65 234.424C226.622 234.382 226.594 234.341 226.568 234.299C226.548 234.268 226.529 234.237 226.511 234.206C225.409 236.145 224.404 237.804 223.496 239.185C221.554 242.283 219.37 244.462 216.943 245.72C216.458 245.914 215.73 246.011 214.759 246.011C212.43 245.817 210.585 244.849 209.226 243.106C208.158 241.557 207.527 239.572 207.333 237.152V235.7C207.333 234.054 207.382 232.844 207.479 232.069C207.576 230.617 207.77 228.826 208.061 226.696C207.867 226.696 207.527 226.938 207.042 227.422C205.489 229.649 203.596 232.021 201.363 234.538C200.004 236.087 198.451 237.491 196.704 238.749L195.83 239.185C195.539 239.379 195.199 239.572 194.811 239.766C194.617 239.863 194.083 239.911 193.209 239.911C189.909 239.911 187.724 238.749 186.657 236.426C186.268 235.361 186.074 234.247 186.074 233.086C186.074 232.442 186.097 231.806 186.141 231.178C183.365 235.867 180.903 239.795 178.755 242.961L175.115 247.899C174.921 248.092 173.61 249.544 171.183 252.255C170.31 253.32 169.096 254.337 167.543 255.305C166.864 255.692 165.796 255.983 164.34 256.176H163.612C163.32 256.273 163.078 256.273 162.884 256.176ZM171.475 211.447C171.96 211.254 172.3 210.915 172.494 210.431C174.824 207.72 176.474 205.638 177.445 204.186C179.58 200.701 180.939 198.425 181.522 197.36C184.24 192.326 186.618 186.614 188.657 180.224C190.016 175.77 190.938 171.075 191.423 166.137C191.617 165.072 191.714 163.475 191.714 161.345C191.714 159.602 191.666 158.295 191.569 157.424C191.569 157.23 191.52 156.939 191.423 156.552C191.326 156.068 191.132 155.584 190.841 155.1L189.53 156.843C187.88 159.554 186.424 162.652 185.162 166.137C184.774 167.008 184.288 168.17 183.706 169.622C183.22 170.978 182.832 172.091 182.541 172.963L177.881 186.614C177.493 188.163 176.959 189.954 176.28 191.987C176.28 192.181 176.183 192.568 175.988 193.149L174.241 199.684C174.144 200.555 173.901 201.62 173.513 202.879L172.639 206.074L172.494 206.51C172.3 207.09 172.106 207.865 171.911 208.833C171.717 209.801 171.523 210.576 171.329 211.157L171.475 211.447ZM234.883 260.243C234.98 260.243 235.077 260.194 235.174 260.097H235.32C236.388 258.839 236.97 258.064 237.067 257.774C238.135 255.644 238.814 253.417 239.106 251.093C239.3 249.157 239.397 247.753 239.397 246.882C239.397 244.074 239.009 241.654 238.232 239.621C237.941 238.749 237.407 237.539 236.63 235.99C236.63 235.893 236.533 235.797 236.339 235.7C236.242 235.603 236.145 235.603 236.048 235.7C235.465 238.411 235.077 240.492 234.883 241.944C234.495 245.236 234.252 247.753 234.155 249.496C233.961 252.691 234.106 255.983 234.592 259.371C234.592 259.565 234.689 259.855 234.883 260.243ZM243.328 209.124C245.755 206.219 247.017 204.67 247.114 204.476C249.638 201.185 251.483 198.667 252.647 196.925L257.453 188.937C258.52 187.195 259.928 184.484 261.675 180.805C264.199 175.673 265.946 170.978 266.917 166.718C267.597 164.298 267.936 161.635 267.936 158.731C267.936 157.762 267.742 156.891 267.354 156.117C266.869 156.31 266.383 156.649 265.898 157.133C265.121 157.714 264.151 158.876 262.986 160.619C261.627 162.361 260.704 163.717 260.219 164.685C257.889 168.945 256.239 172.237 255.268 174.56C254.783 175.431 254.298 176.496 253.812 177.755L250.754 185.307C249.59 188.211 248.764 190.438 248.279 191.987C246.92 195.666 245.949 198.425 245.367 200.265L244.93 201.862L243.183 207.09C243.183 207.284 243.086 207.623 242.892 208.107C242.794 208.494 242.794 208.93 242.892 209.414L243.328 209.124ZM265.747 260.097C265.65 260.194 265.552 260.243 265.455 260.243C265.261 259.855 265.164 259.565 265.164 259.371C264.679 255.983 264.533 252.691 264.727 249.496C264.824 247.753 265.067 245.236 265.455 241.944C265.649 240.492 266.038 238.411 266.62 235.7C266.717 235.603 266.814 235.603 266.911 235.7C267.106 235.797 267.203 235.893 267.203 235.99C267.979 237.539 268.513 238.749 268.804 239.621C269.581 241.654 269.969 244.074 269.969 246.882C269.969 247.753 269.872 249.157 269.678 251.093C269.387 253.417 268.707 255.644 267.639 257.774C267.542 258.064 266.96 258.839 265.892 260.097H265.747ZM277.687 204.476C277.589 204.67 276.328 206.219 273.901 209.124L273.464 209.414C273.367 208.93 273.367 208.494 273.464 208.107C273.658 207.623 273.755 207.284 273.755 207.09L275.502 201.862L275.939 200.265C276.522 198.425 277.492 195.666 278.851 191.987C279.337 190.438 280.162 188.211 281.327 185.307L284.385 177.755C284.87 176.496 285.355 175.431 285.841 174.56C286.811 172.237 288.462 168.945 290.791 164.685C291.277 163.717 292.199 162.361 293.558 160.619C294.723 158.876 295.694 157.714 296.47 157.133C296.956 156.649 297.441 156.31 297.926 156.117C298.315 156.891 298.509 157.762 298.509 158.731C298.509 161.635 298.169 164.298 297.489 166.718C296.519 170.978 294.771 175.673 292.248 180.805C290.5 184.484 289.093 187.195 288.025 188.937L283.22 196.925C282.055 198.667 280.21 201.185 277.687 204.476ZM281.175 309.329L281.904 308.603C282.68 307.828 283.408 306.86 284.088 305.698C284.67 304.633 285.058 303.907 285.253 303.52C286.223 301.583 287.388 298.582 288.747 294.516L291.223 286.964C291.708 284.931 292.193 283.285 292.679 282.026L297.775 265.035L300.396 255.741L300.833 253.998L300.105 254.724C299.911 255.015 299.716 255.257 299.522 255.45C298.163 257.58 297.095 259.129 296.319 260.097C294.475 262.905 292.29 266.826 289.766 271.861C288.893 273.41 288.165 274.91 287.582 276.363L286.272 278.977C282.971 286.044 280.981 293.451 280.302 301.196C280.205 301.68 280.156 302.406 280.156 303.374C280.156 304.052 280.253 305.262 280.447 307.005C280.642 307.973 280.884 308.748 281.175 309.329Z" fill="#F53A97"/>
<path d="M172.616 176.797C172.61 176.812 172.61 176.812 172.616 176.798L172.625 176.774L172.638 176.741C172.632 176.758 172.624 176.777 172.616 176.797Z" fill="#F53A97"/>
</svg>
