<svg width="1047" height="800" viewBox="0 0 1047 800" fill="none" xmlns="http://www.w3.org/2000/svg">
<path fill-rule="evenodd" clip-rule="evenodd" d="M814.345 286.749C813.358 288.476 811.878 289.709 809.905 290.449C807.932 291.436 805.712 291.929 803.245 291.929C800.038 291.929 796.955 291.066 793.995 289.339C791.035 287.859 788.692 285.516 786.965 282.309C784.498 277.623 782.895 273.553 782.155 270.099C782.155 269.606 782.032 268.989 781.785 268.249C781.785 267.509 781.538 266.523 781.045 265.289C780.552 259.863 780.305 255.669 780.305 252.709C780.305 249.996 780.552 245.926 781.045 240.499C782.772 226.933 784.868 215.463 787.335 206.09L789.555 194.99C790.048 193.263 790.542 191.66 791.035 190.18C791.528 188.453 792.022 186.85 792.515 185.37L795.475 173.53V172.05L791.405 175.75C787.458 179.943 783.388 184.753 779.195 190.18C774.262 196.1 770.932 200.416 769.205 203.13C767.725 204.856 766.122 207.076 764.395 209.79C762.915 212.503 761.682 214.6 760.695 216.08C758.229 219.533 755.022 225.206 751.075 233.1L744.415 247.529C741.208 255.669 739.359 260.726 738.865 262.699C737.879 264.673 737.385 266.276 737.385 267.509C737.138 268.249 736.522 269.113 735.535 270.099C733.315 271.579 731.095 272.319 728.875 272.319C724.435 272.319 721.229 270.593 719.255 267.139C718.515 264.426 718.145 261.836 718.145 259.369C718.145 257.149 718.392 253.573 718.885 248.639L720.735 230.88C721.722 221.753 722.585 214.476 723.325 209.05C725.052 194.743 726.902 183.026 728.875 173.9C730.849 163.786 732.575 155.893 734.055 150.22C734.549 148 735.535 143.683 737.015 137.27L739.605 124.69C740.839 120.743 742.442 114.823 744.415 106.93L746.635 99.8998C747.869 94.2265 749.719 88.4298 752.185 82.5098C752.432 81.5232 752.678 80.6598 752.925 79.9198L753.665 76.9599C754.405 74.7399 756.132 69.6832 758.845 61.7899L759.822 59.0539C759.669 59.0823 759.511 59.1106 759.348 59.1389C759.231 59.1592 759.112 59.1796 758.99 59.1999C757.756 59.4465 756.77 59.5699 756.03 59.5699C748.63 61.5432 743.08 62.8999 739.38 63.6399L723.47 67.3399L719.4 68.4499C719.893 68.9432 720.14 69.3132 720.14 69.5599C722.853 71.2865 724.21 74.2465 724.21 78.4398C724.21 82.1398 723.47 87.6898 721.99 95.0898L715.33 121.73L707.19 150.96L703.86 163.54L699.05 180.56L694.24 199.43C693.253 202.143 692.39 205.35 691.65 209.05L686.47 226.81L681.29 245.309L676.48 263.069L672.04 277.869L669.08 288.229L666.86 295.999C666.613 296.739 666.243 298.466 665.75 301.179C665.257 303.893 664.147 306.483 662.42 308.949C660.94 310.923 658.967 311.909 656.5 311.909C655.267 311.909 653.787 311.663 652.06 311.169C650.58 310.923 649.223 310.676 647.99 310.429C646.757 310.183 645.77 309.443 645.03 308.209C644.29 307.223 643.92 305.989 643.92 304.509L644.66 301.919L648.36 288.229L656.13 259.739L665.01 224.59L670.19 204.24L675 187.22L680.18 167.24C683.88 154.66 688.073 139.983 692.76 123.21L703.12 87.6898L707.19 75.1098C707.19 74.3699 707.437 73.2599 707.93 71.7799C706.697 71.2865 705.093 71.2865 703.12 71.7799C697.693 73.2599 693.623 74.2465 690.91 74.7398C688.937 75.2332 687.457 75.4799 686.47 75.4799C685.977 75.4799 685.237 75.6032 684.25 75.8499C683.263 76.0965 682.4 76.3432 681.66 76.5898C674.507 78.8098 666.86 80.6598 658.72 82.1398L657.24 82.5098L632.08 89.9098L631.34 90.2798L622.09 94.3498C622.583 95.3365 623.693 95.8298 625.42 95.8298L638.74 98.7898C646.387 101.01 652.43 103.6 656.87 106.56C659.583 108.533 661.557 111.37 662.79 115.07C663.283 116.056 663.53 116.92 663.53 117.66C663.53 118.646 663.16 119.756 662.42 120.99C661.433 123.21 659.707 124.073 657.24 123.58C654.033 122.84 651.567 120.866 649.84 117.66V115.81V115.07C649.84 113.343 648.977 112.11 647.25 111.37C643.303 109.89 640.22 108.903 638 108.41L626.53 106.56C623.323 106.066 618.76 105.08 612.84 103.6C610.62 103.106 607.783 101.626 604.33 99.1598C603.343 98.1731 602.727 97.4331 602.48 96.9398C601.493 95.9531 601 94.5965 601 92.8698C601 91.6365 601.247 90.6498 601.74 89.9098C602.973 87.4432 604.577 85.5932 606.55 84.3598C609.51 82.6332 613.58 80.6598 618.76 78.4398C623.693 76.4665 631.34 73.9999 641.7 71.0399C648.113 69.0665 653.047 67.7099 656.5 66.9699L677.22 61.7899C684.127 59.8166 689.43 58.4599 693.13 57.7199L697.94 56.6099C703.366 55.6232 711.506 53.8966 722.36 51.4299L740.49 47.7299L747.89 46.2499L760.84 44.0299L765.86 42.9385C771.213 31.0059 776.151 21.873 780.675 15.54C785.115 9.12666 789.432 4.68667 793.625 2.22001L794.365 1.85002C798.065 0.616672 801.272 0 803.985 0C805.958 0 807.808 0.370002 809.535 1.11001C812.002 2.09667 814.838 3.7 818.045 5.92C819.525 6.90667 820.512 8.26333 821.005 9.98998C821.745 13.1966 822.115 16.4033 822.115 19.61L821.745 27.38C821.567 29.0882 821.361 30.7835 821.127 32.4661C823.89 31.9296 826.858 31.3443 830.03 30.7099C833.73 29.9699 840.636 28.7366 850.75 27.0099C851.243 27.0099 851.613 26.8866 851.859 26.64C853.339 26.1466 854.45 25.9 855.19 25.9C855.683 25.9 857.409 26.27 860.37 27.0099C863.083 27.9966 864.809 29.9699 865.549 32.9299C865.549 33.9166 865.179 34.6566 864.439 35.1499C864.193 35.6433 863.576 36.1366 862.589 36.6299C858.149 38.1099 854.819 38.9733 852.599 39.2199C851.613 39.2199 850.873 39.3433 850.38 39.5899C848.653 40.3299 846.31 40.9466 843.35 41.4399C840.636 41.9333 838.17 42.4266 835.95 42.9199L821.52 45.8799C820.66 46.0027 819.648 46.156 818.483 46.3399C817.256 51.3684 815.753 56.2717 813.975 61.0499C810.768 70.6699 808.425 76.9599 806.945 79.9198C801.765 93.4865 796.092 105.573 789.925 116.18C785.485 124.32 780.182 132.583 774.015 140.97C766.122 151.33 760.078 158.73 755.885 163.17C754.159 165.143 752.925 167.486 752.185 170.2L748.115 192.4C747.622 194.866 747.129 198.566 746.635 203.5L744.415 214.97C743.922 215.956 744.169 216.943 745.155 217.93C745.649 217.436 745.895 217.066 745.895 216.82C749.102 211.146 755.762 201.403 765.875 187.59C772.288 179.203 780.428 169.706 790.295 159.1L800.285 149.85C802.505 147.876 805.218 146.89 808.425 146.89C811.878 146.89 814.715 148.37 816.935 151.33C819.155 154.29 820.265 157.866 820.265 162.06C820.265 164.033 820.142 165.513 819.895 166.5L815.455 183.52L809.535 207.57C808.548 212.01 807.315 218.3 805.835 226.44C803.368 238.773 802.135 249.996 802.135 260.109C802.135 261.589 802.258 264.179 802.505 267.879C802.752 271.579 803.122 274.909 803.615 277.869L803.985 278.609C805.712 277.869 807.438 275.773 809.165 272.319C811.138 268.866 814.098 262.823 818.045 254.189L821.745 246.049L826.555 235.32L833.215 220.52L836.088 213.965C836.258 213.325 836.435 212.673 836.617 212.01C838.837 203.13 841.921 194.743 845.867 186.85C848.334 180.93 850.431 176.613 852.157 173.9C854.377 169.706 856.474 166.253 858.447 163.54C862.147 158.113 866.957 154.536 872.877 152.81C875.097 152.07 877.317 151.7 879.537 151.7C882.744 151.7 886.074 152.81 889.527 155.03C889.774 155.276 891.5 156.633 894.707 159.1L896.187 157.62C896.68 156.14 897.174 155.03 897.667 154.29C898.654 151.823 900.627 149.973 903.587 148.74C904.574 148.246 905.437 148.246 906.177 148.74C908.15 149.48 911.11 150.836 915.057 152.81C916.784 153.796 917.4 155.276 916.907 157.25C916.907 157.99 916.784 159.1 916.537 160.58C916.29 161.813 916.044 162.8 915.797 163.54C914.317 169.953 912.22 177.6 909.507 186.48C906.054 198.32 903.71 207.323 902.477 213.49C900.504 221.383 899.147 227.303 898.407 231.25C897.914 233.963 897.42 238.033 896.927 243.46L894.707 263.809V264.919C894.954 265.166 895.447 264.919 896.187 264.179C896.927 262.699 897.914 261.096 899.147 259.369C900.38 257.643 901.614 255.669 902.847 253.449C906.794 246.049 910.494 238.28 913.947 230.14L919.497 217.93L928.747 196.84L936.77 179.012C937.309 176.89 937.885 174.693 938.497 172.42C941.21 164.033 943.307 158.36 944.787 155.4L947.377 151.33C948.857 149.11 950.954 148 953.667 148H957.737C961.437 148.246 963.287 151.7 963.287 158.36C963.287 160.58 963.04 163.17 962.547 166.13C962.3 167.116 961.684 169.46 960.697 173.16L957.737 186.48C957.244 188.453 956.627 190.796 955.887 193.51C955.394 196.223 954.9 199.306 954.407 202.76C953.42 209.173 952.804 213.86 952.557 216.82V219.41C953.297 219.163 954.284 218.423 955.517 217.19L959.957 211.27C961.19 209.79 962.547 208.063 964.027 206.09C965.507 204.116 967.11 201.896 968.837 199.43L979.937 181.67C982.157 177.476 985.24 172.79 989.187 167.61L991.777 164.65C993.75 162.676 996.094 161.69 998.807 161.69C1000.04 161.69 1001.03 161.813 1001.77 162.06C1004.97 163.046 1007.44 165.02 1009.17 167.98C1010.15 169.953 1010.65 171.68 1010.65 173.16C1010.15 179.08 1009.54 183.52 1008.8 186.48C1006.82 192.893 1004.73 201.896 1002.51 213.49C1001.52 217.436 1000.9 220.396 1000.66 222.37C1000.16 224.343 999.67 227.55 999.177 231.99C998.93 233.716 998.56 235.813 998.067 238.28C997.574 240.499 997.204 243.213 996.957 246.419C996.464 249.379 996.094 251.969 995.847 254.189V259.739C995.6 263.686 995.477 269.606 995.477 277.499L996.217 288.599L997.327 287.489C999.794 283.789 1001.77 279.596 1003.25 274.909L1009.91 257.149L1013.98 244.939C1014.47 243.953 1015.33 241.486 1016.57 237.54L1020.27 227.55C1021.75 224.096 1022.86 221.136 1023.6 218.67C1024.58 215.956 1025.32 213.736 1025.82 212.01L1031.37 197.21C1036.05 185.123 1038.52 178.586 1038.77 177.6C1039.01 176.366 1039.63 175.38 1040.62 174.64C1041.6 173.653 1042.47 173.16 1043.21 173.16C1044.19 173.16 1045.06 173.653 1045.8 174.64C1046.54 175.626 1046.91 177.106 1046.91 179.08C1046.91 180.313 1046.78 181.3 1046.54 182.04L1038.4 207.57C1032.72 226.07 1028.16 239.636 1024.71 248.269C1022.98 252.709 1021.62 256.656 1020.64 260.109L1016.2 272.319C1015.7 273.799 1014.72 276.389 1013.24 280.089C1012 284.036 1010.65 287.366 1009.17 290.079C1006.45 295.259 1004.85 298.343 1004.36 299.329C1003.37 301.056 1001.64 302.289 999.177 303.029C996.71 303.523 995.107 303.769 994.367 303.769C990.667 303.769 987.09 302.783 983.637 300.809C980.184 298.589 977.84 295.136 976.607 290.449C974.88 284.036 974.017 278.609 974.017 274.169C974.017 263.809 974.264 256.039 974.757 250.859C975.497 242.966 976.607 234.703 978.087 226.07C980.06 215.216 981.787 206.953 983.267 201.28L984.377 195.36C983.39 195.853 982.65 196.593 982.157 197.58C981.91 198.566 981.664 199.183 981.417 199.43C980.184 201.156 979.074 202.883 978.087 204.61C977.347 206.09 976.484 207.57 975.497 209.05C973.524 212.75 970.317 218.3 965.877 225.7C963.41 229.4 961.067 232.36 958.847 234.58C956.627 236.8 953.914 237.663 950.707 237.17C943.554 236.43 938.004 233.346 934.057 227.92L932.577 224.96C932.33 224.713 932.207 224.466 932.207 224.22C932.207 223.726 932.084 223.356 931.837 223.11C931.508 221.903 931.252 220.623 931.069 219.27C929.934 221.991 929.406 223.271 929.487 223.11C923.32 237.17 919.497 245.803 918.017 249.009C915.304 255.423 911.234 262.576 905.807 270.469C900.38 278.363 895.817 282.679 892.117 283.419C889.157 283.913 886.32 283.543 883.607 282.309C881.141 281.076 879.29 279.103 878.057 276.389C877.07 274.169 876.33 271.703 875.837 268.989C874.604 263.563 873.987 258.506 873.987 253.819C873.741 249.873 874.111 243.706 875.097 235.32L875.467 231.62L873.617 233.84C871.397 237.046 868.314 240.5 864.367 244.2C860.421 247.653 856.721 249.996 853.267 251.229C851.787 251.723 850.554 251.969 849.567 251.969C847.347 251.969 845.251 251.353 843.277 250.119L838.837 247.899C837.583 247.088 836.516 246.099 835.637 244.934C834.99 246.473 834.43 247.955 833.955 249.38L829.515 259.369C827.048 265.043 823.965 270.963 820.265 277.129C817.798 281.569 815.825 284.776 814.345 286.749ZM782.525 60.6799C783.188 59.5758 784.245 56.9891 785.699 52.9198C793.115 51.2171 798.784 50.2338 802.706 49.9697C800.639 57.5753 798.352 64.4753 795.845 70.6699C793.625 77.3298 790.665 85.0998 786.965 93.9798C782.525 103.6 778.455 111.37 774.755 117.29L762.175 136.53L759.955 139.12L759.215 138.75C759.462 138.256 759.585 137.516 759.585 136.53C763.532 121.73 765.875 112.973 766.615 110.26C768.589 102.613 770.685 95.3365 772.905 88.4298C774.385 84.4832 775.372 81.3998 775.865 79.1798L778.825 70.2999L782.525 60.6799ZM806.575 33.6699C806.467 34.1914 806.358 34.7103 806.249 35.2266C804.808 35.476 803.485 35.6971 802.28 35.8899C799.852 36.4969 796.428 37.1868 792.009 37.9597C794.768 32.4795 797.526 27.843 800.285 24.05C802.752 20.5966 804.725 18.2533 806.205 17.02C806.945 17.2666 807.315 17.8833 807.315 18.87C807.315 25.53 807.068 30.4633 806.575 33.6699ZM241.609 327.079C239.143 327.573 237.293 327.819 236.059 327.819C231.373 327.819 227.056 325.846 223.109 321.899C221.876 320.419 220.766 318.569 219.78 316.349C218.793 314.376 217.93 312.156 217.189 309.689C215.71 304.016 214.97 296.986 214.97 288.599C214.97 283.419 215.093 279.596 215.34 277.129C215.833 269.483 216.943 257.889 218.67 242.349C220.643 226.81 222.493 214.476 224.219 205.35L229.399 177.6C230.633 170.94 233.346 159.346 237.539 142.82L240.869 129.13L246.049 109.89C247.776 104.71 251.599 90.2798 257.519 66.5999C255.793 69.5599 253.449 73.8765 250.489 79.5498C247.776 84.9765 246.049 88.7998 245.309 91.0198C241.116 97.9265 236.306 107.3 230.879 119.14L220.15 140.6C219.41 142.08 218.176 144.793 216.45 148.74C214.723 152.686 212.873 156.14 210.9 159.1C209.913 161.813 206.46 169.336 200.54 181.67L192.4 199.06C191.906 200.046 191.29 201.156 190.55 202.39C189.81 203.623 189.07 205.226 188.33 207.2L179.08 224.96L176.49 230.14C175.75 232.113 175.256 233.593 175.01 234.58C171.556 241.486 166.746 250.736 160.58 262.329C154.66 273.676 149.973 282.679 146.52 289.339C145.04 291.066 143.683 292.669 142.45 294.149C141.463 295.629 140.6 296.863 139.86 297.849V297.479C136.16 300.439 132.706 301.919 129.5 301.919C126.54 301.919 124.073 301.796 122.1 301.549C120.126 301.056 118.276 300.069 116.55 298.589C115.07 297.356 114.206 295.629 113.96 293.409C113.466 287.983 113.22 284.283 113.22 282.309L113.59 266.769C115.316 255.669 116.673 245.31 117.66 235.69C118.153 230.756 119.14 223.603 120.62 214.23L122.1 203.5C122.84 200.54 123.333 197.086 123.58 193.14C124.073 188.946 124.443 186.11 124.69 184.63V185C126.416 177.353 127.526 169.953 128.02 162.8L129.5 155.4L132.83 138.75L135.05 124.69C136.036 118.523 136.9 113.59 137.64 109.89C138.133 104.956 139.12 98.7898 140.6 91.3898C141.093 88.9232 141.833 84.7298 142.82 78.8099C143.806 72.6432 144.423 67.3399 144.67 62.8999L145.41 55.1299C145.656 52.6632 145.903 49.8266 146.15 46.6199C146.396 43.1666 146.52 39.3433 146.52 35.1499L146.15 27.0099C146.15 25.2833 146.026 23.8033 145.78 22.57C144.3 23.31 142.45 24.79 140.23 27.0099C138.256 29.2299 136.9 31.0799 136.16 32.56V32.9299C130.24 44.2766 125.183 55.0066 120.99 65.1199L108.78 95.8298L101.01 117.29C99.5298 121.236 98.1731 124.69 96.9398 127.65C95.7065 130.363 94.5965 132.83 93.6098 135.05V135.42C93.3631 136.9 92.7465 138.75 91.7598 140.97C91.0198 142.943 90.4031 144.423 89.9098 145.41C89.1698 146.15 88.5531 147.26 88.0598 148.74C87.8131 150.22 87.5665 151.206 87.3198 151.7C85.8398 155.153 84.6065 158.236 83.6198 160.95C82.6331 163.416 81.7698 165.76 81.0298 167.98C80.0432 170.94 78.6865 174.27 76.9598 177.97L73.9998 185.74C69.5598 197.086 66.1065 205.473 63.6399 210.9C63.1465 212.38 60.9265 218.053 56.9799 227.92C54.0199 235.813 49.8266 244.569 44.3999 254.189C43.1666 257.396 41.0699 261.713 38.1099 267.139C36.1366 270.346 33.4233 273.923 29.9699 277.869C29.2299 279.103 27.7499 279.966 25.5299 280.459C24.7899 280.953 23.9266 281.199 22.9399 281.199C22.1999 281.446 21.3366 281.693 20.35 281.939H20.72L17.02 282.309C15.0466 282.309 12.4566 281.693 9.24997 280.459C6.53664 279.226 4.80998 277.623 4.06998 275.649C2.09665 270.716 1.23333 266.769 1.48 263.809V263.439L0.739989 256.779C0.246657 254.313 0 251.846 0 249.38V239.02C0 233.84 0.246657 229.03 0.739989 224.59C0.986655 216.45 1.72667 208.31 2.96 200.17L8.87998 160.95C10.36 154.783 11.3466 149.603 11.84 145.41C12.3333 143.436 12.8266 140.97 13.32 138.01C13.8133 134.556 15.4166 127.526 18.13 116.92L20.72 106.19C21.7066 102.983 23.68 98.5431 26.6399 92.8698C29.5999 87.1965 31.6966 83.9898 32.9299 83.2498C34.9033 81.7698 37.7399 81.0298 41.4399 81.0298C47.1132 81.0298 49.8266 83.0032 49.5799 86.9498C49.3332 91.3898 48.4699 95.9531 46.9899 100.64C45.5099 108.04 42.7966 118.646 38.8499 132.46C37.1233 143.066 34.4099 159.593 30.7099 182.04C27.0099 204.486 24.7899 219.286 24.0499 226.44C24.0499 228.66 23.8033 231.496 23.31 234.95C22.8166 240.87 22.5699 245.063 22.5699 247.529V253.079C22.8166 254.806 22.8166 256.163 22.5699 257.149H23.68C25.1599 257.149 26.1466 256.779 26.6399 256.039C27.3799 255.299 27.7499 254.683 27.7499 254.189C28.7366 251.969 29.9699 249.256 31.4499 246.049C33.1766 242.596 34.5333 239.636 35.5199 237.17C39.4666 230.51 42.9199 222.986 45.8799 214.6C49.8266 205.72 52.9099 197.58 55.1299 190.18L62.5299 173.16L64.7499 165.76C66.7232 161.073 69.0665 154.783 71.7798 146.89L75.8498 136.53C77.8232 133.076 79.5498 129.253 81.0298 125.06C82.7565 120.62 83.9898 117.66 84.7298 116.18L89.5398 102.86C90.7731 100.146 92.3765 95.8298 94.3498 89.9098L103.97 65.8599L109.89 51.7999C110.383 50.8132 111.616 48.0999 113.59 43.6599C118.523 32.3133 122.716 23.8033 126.17 18.13C126.663 17.39 127.65 15.7866 129.13 13.32C130.856 10.6067 132.83 8.14 135.05 5.92C136.283 4.68667 137.763 3.82333 139.49 3.32999C141.463 2.83667 142.696 2.59001 143.19 2.59001C145.656 2.09668 147.26 1.85002 148 1.85002C158.113 1.35668 164.526 5.42667 167.24 14.06C168.473 17.02 169.336 21.7066 169.83 28.12C170.076 30.3399 170.2 33.6699 170.2 38.1099C170.2 48.2232 169.09 61.0499 166.87 76.5898C166.376 80.0432 165.513 86.9498 164.28 97.3098C163.54 102.243 162.553 107.546 161.32 113.22C160.826 117.906 159.47 126.293 157.25 138.38C154.783 150.713 153.18 160.333 152.44 167.24C150.96 172.666 149.85 178.833 149.11 185.74C148.616 192.4 148.246 196.593 148 198.32V197.95C146.026 204.61 144.916 211.023 144.67 217.19C143.93 219.656 142.82 226.686 141.34 238.28C140.106 249.626 139.366 255.669 139.12 256.409L138.38 263.069L138.01 268.989C141.71 263.563 146.52 255.423 152.44 244.57C158.606 233.47 162.306 225.946 163.54 222C172.42 205.473 180.066 190.303 186.48 176.49L203.5 141.34C205.226 137.393 206.83 133.816 208.31 130.61C210.036 127.403 211.516 124.566 212.75 122.1C218.67 110.26 223.603 99.7765 227.55 90.6498C234.21 79.3032 240.869 66.8465 247.529 53.2799L252.339 43.6599L267.509 13.69V13.32C268.228 11.4048 269.643 9.14103 271.755 6.52875C273.648 5.12153 275.193 4.17861 276.389 3.70001C277.623 2.96001 279.103 2.71334 280.829 2.96C285.763 3.94667 288.846 4.81 290.079 5.55C292.299 6.53667 293.409 7.89333 293.409 9.61999V11.47C293.656 11.9633 293.656 12.58 293.409 13.32C293.656 16.7733 293.533 20.35 293.039 24.05C292.546 27.75 292.176 30.2166 291.929 31.4499V31.08C290.449 36.2599 288.846 42.4266 287.119 49.5799C286.133 52.5399 284.899 56.9799 283.419 62.8999L278.979 79.5498C277.006 86.9498 275.403 92.4998 274.169 96.1998L272.319 103.6C271.333 108.533 270.346 112.356 269.359 115.07C266.893 126.416 264.919 134.31 263.439 138.75C263.193 140.23 262.576 142.45 261.589 145.41C260.849 148.37 260.356 151.083 260.109 153.55L258.259 161.69C251.353 192.77 247.653 210.406 247.159 214.6C245.679 224.466 243.706 239.266 241.239 258.999C238.773 278.486 237.539 293.163 237.539 303.029L237.909 308.579L239.019 313.019L240.499 314.129C241.979 314.129 242.719 313.759 242.719 313.019C248.146 308.826 252.339 304.139 255.299 298.959L260.109 291.929L264.179 285.639C265.413 283.666 266.523 281.693 267.509 279.719C268.496 277.746 269.483 275.896 270.469 274.169C274.663 267.263 279.103 258.999 283.789 249.38C286.996 244.2 290.573 237.416 294.519 229.03L311.539 197.95C315.433 191.09 318.42 185.484 320.502 181.133C321.132 179.516 321.77 177.968 322.417 176.49C324.883 170.57 326.857 166.13 328.337 163.17C330.31 160.21 331.913 158.113 333.147 156.88C334.38 155.646 335.613 155.03 336.847 155.03C337.587 155.03 338.697 155.4 340.177 156.14C341.163 156.633 343.507 157.496 347.207 158.73H347.947C349.427 157.496 351.277 156.88 353.497 156.88C355.223 156.88 356.58 157.126 357.567 157.62C357.813 157.866 358.06 157.99 358.307 157.99C358.8 157.99 359.17 158.113 359.417 158.36C362.13 159.1 364.103 160.95 365.337 163.91C367.557 168.35 368.667 173.16 368.667 178.34V185V187.22C369.16 187.466 369.53 187.59 369.777 187.59H370.887C377.053 186.356 382.85 184.383 388.277 181.67C392.635 179.49 396.118 176.834 398.727 173.7C397.268 173.06 395.768 172.387 394.225 171.68C389.539 169.213 385.715 166.746 382.755 164.28C373.382 156.88 369.066 147.26 369.806 135.42C370.052 132.46 370.792 129.253 372.025 125.8C374.492 119.386 377.576 113.96 381.275 109.52C384.235 106.066 387.442 103.476 390.895 101.75C393.855 99.7765 397.309 98.7898 401.255 98.7898C404.709 98.7898 408.039 99.6531 411.245 101.38C414.452 102.86 416.919 104.71 418.645 106.93C421.852 111.123 423.579 115.81 423.825 120.99C424.565 130.856 423.209 140.846 419.755 150.96C418.769 154.166 417.782 157.126 416.795 159.84C415.809 162.553 414.945 165.02 414.205 167.24C413.959 167.486 413.835 167.856 413.835 168.35C413.835 168.596 413.712 168.843 413.465 169.09L416.055 170.57L439.365 178.71C442.819 180.19 445.409 181.176 447.135 181.67C449.849 182.163 452.439 184.383 454.905 188.33C455.399 189.316 455.645 190.056 455.645 190.55C455.645 191.536 455.275 192.646 454.535 193.88C453.795 195.606 452.809 197.333 451.575 199.06C448.862 203.253 446.025 208.556 443.065 214.97C441.092 219.656 438.379 226.933 434.925 236.8L430.855 251.229C429.375 257.149 428.389 261.589 427.895 264.549C427.649 265.783 426.539 272.936 424.565 286.009C424.072 289.216 423.825 294.026 423.825 300.439C423.825 302.413 423.949 304.016 424.195 305.249H424.565C425.059 304.756 425.305 304.386 425.305 304.139L428.265 293.039C430.732 283.173 434.555 272.073 439.735 259.739C444.669 247.406 448.492 238.156 451.205 231.99C451.699 230.756 452.315 229.276 453.055 227.55C454.042 225.823 455.029 223.85 456.015 221.63C457.989 218.176 459.345 215.586 460.085 213.86C462.552 209.173 466.252 202.883 471.185 194.99C474.289 190.113 477.082 185.812 479.566 182.086C480.024 180.991 480.504 179.865 481.005 178.71C483.225 173.776 485.815 168.966 488.775 164.28C489.268 163.293 491.735 159.346 496.175 152.44L499.505 148.37L506.905 140.23L513.565 135.05C516.771 132.336 521.458 130.116 527.625 128.39C528.611 127.896 529.968 127.65 531.695 127.65C533.668 127.65 535.148 127.896 536.135 128.39L540.945 130.24C542.178 130.733 543.041 131.226 543.535 131.72C546.248 134.186 547.481 137.146 547.235 140.6C546.248 146.026 545.015 150.466 543.535 153.92C540.821 160.086 536.998 166.253 532.065 172.42C530.338 174.886 528.488 176.983 526.515 178.71C519.608 185.123 514.181 189.686 510.235 192.4C507.768 193.88 504.068 195.853 499.135 198.32L496.915 199.43L496.175 200.17C493.955 206.09 492.475 212.256 491.735 218.67L491.365 228.29C491.118 233.47 491.981 239.143 493.955 245.309C494.201 245.803 494.448 246.419 494.695 247.159C494.941 247.653 495.188 248.269 495.435 249.009C497.161 251.476 499.258 252.586 501.725 252.339C504.685 252.339 507.398 251.969 509.865 251.229C518.005 249.503 526.515 244.57 535.395 236.43C540.328 231.99 545.385 226.193 550.565 219.04C553.525 215.093 557.471 208.926 562.404 200.54C565.118 195.853 569.065 187.343 574.244 175.01C574.738 173.53 575.601 172.296 576.834 171.31C578.314 170.323 579.794 169.83 581.274 169.83C582.754 169.83 583.865 170.446 584.604 171.68C585.344 172.913 585.344 174.64 584.604 176.86C582.385 183.52 578.684 191.906 573.504 202.02C568.571 211.886 563.638 220.273 558.704 227.18C557.471 228.906 555.375 231.25 552.414 234.21C546.248 241.116 540.328 246.666 534.655 250.859C527.748 255.793 521.828 259.123 516.895 260.849C512.455 262.083 508.508 262.699 505.055 262.699C498.641 262.699 491.858 260.726 484.705 256.779C479.525 253.819 475.825 249.503 473.605 243.829C471.631 239.389 470.521 234.95 470.275 230.51C470.028 228.783 469.905 226.316 469.905 223.11C469.905 222.591 469.908 222.095 469.913 221.622C468.407 224.363 467.104 226.832 466.005 229.03C464.772 231.99 463.662 234.456 462.675 236.43L458.235 246.789L451.205 264.549C446.025 277.376 442.325 288.969 440.105 299.329C438.625 305.003 437.022 312.526 435.295 321.899C434.555 325.106 433.445 328.189 431.965 331.149C429.992 334.849 427.155 336.329 423.455 335.589C419.262 335.096 415.809 333.739 413.095 331.519C409.395 328.806 407.052 325.476 406.065 321.529C403.352 312.896 401.995 304.386 401.995 295.999C401.995 289.093 402.489 282.679 403.475 276.759C403.969 271.826 405.202 265.289 407.175 257.149C409.889 244.569 412.725 233.963 415.685 225.33C418.152 217.436 421.359 209.296 425.305 200.91C426.292 198.69 427.279 196.84 428.265 195.36C429.252 193.633 430.115 192.153 430.855 190.92L431.595 189.44L433.075 187.22L431.595 186.48L410.135 178.34C408.96 177.907 407.747 177.443 406.494 176.948C405.748 178.719 404.362 180.54 402.337 182.41C398.637 186.356 393.703 189.933 387.537 193.14C381.37 196.1 374.71 197.826 367.557 198.32C367.31 199.553 366.693 202.266 365.707 206.46C364.227 213.613 362.007 220.52 359.047 227.18L354.977 236.43C352.51 242.103 348.81 246.913 343.877 250.859L338.327 254.189C336.6 255.176 334.627 255.669 332.407 255.669C331.173 255.669 330.187 255.546 329.447 255.299C324.02 253.573 320.073 250.983 317.607 247.529C316.62 246.296 315.387 244.446 313.907 241.979L312.797 240.13C311.435 236.046 310.7 231.44 310.591 226.313C309.162 229.524 307.258 233.143 304.879 237.17C303.893 239.39 302.906 241.363 301.919 243.09C300.933 244.816 300.069 246.419 299.329 247.899L282.309 279.719L276.389 290.819C270.716 300.933 263.193 310.553 253.819 319.679H253.449C250.983 323.133 247.036 325.599 241.609 327.079ZM271.755 6.52875C271.697 6.57206 271.638 6.6158 271.579 6.65999L271.949 6.28999C271.884 6.3699 271.819 6.44949 271.755 6.52875ZM332.777 240.87C334.01 240.376 335.12 239.636 336.107 238.65C337.34 237.663 338.203 236.923 338.697 236.43C341.163 233.963 343.877 229.77 346.837 223.85C349.797 218.67 352.387 211.516 354.607 202.39C355.593 198.936 356.087 196.346 356.087 194.62C355.1 193.88 353.99 193.14 352.757 192.4C351.77 191.66 350.783 190.796 349.797 189.81C348.317 188.576 346.343 186.48 343.877 183.52C343.383 184.013 342.89 184.876 342.397 186.11L339.067 195.36C336.6 202.513 334.257 211.146 332.037 221.26C331.543 224.22 331.297 227.426 331.297 230.88V237.54C331.297 239.266 331.79 240.376 332.777 240.87ZM357.567 184.63C357.813 183.643 357.937 181.793 357.937 179.08C357.937 175.873 357.813 173.653 357.567 172.42C357.073 171.433 356.827 170.446 356.827 169.46L355.717 170.94C354.977 172.666 354.607 174.64 354.607 176.86C354.607 179.08 355.223 181.423 356.457 183.89C356.457 184.136 356.58 184.26 356.827 184.26C357.073 184.26 357.32 184.383 357.567 184.63ZM407.915 148.37C405.942 154.783 403.969 160.086 401.995 164.28L400.145 163.54C396.692 161.566 394.719 160.333 394.225 159.84C387.565 155.153 384.482 148.493 384.975 139.86C385.222 132.706 387.812 125.676 392.745 118.77L397.555 112.48C399.775 110.26 402.982 108.78 407.175 108.04C409.642 110.506 411.122 113.836 411.615 118.03C411.862 119.51 411.985 121.853 411.985 125.06C411.985 128.02 411.862 130.363 411.615 132.09C411.122 136.53 409.889 141.956 407.915 148.37ZM503.575 182.78C506.781 181.793 511.838 177.476 518.745 169.83C524.665 163.416 529.351 155.4 532.805 145.78C530.091 147.013 528.118 148.493 526.885 150.22C526.145 151.206 525.281 152.07 524.295 152.81C523.555 153.303 522.815 154.043 522.075 155.03L518.745 158.73C515.291 163.663 512.825 167.363 511.345 169.83L506.905 176.49C506.658 176.983 505.548 179.08 503.575 182.78ZM862.887 228.66L856.227 234.95L854.747 236.06C854.501 234.58 854.624 231.99 855.117 228.29C856.104 224.096 857.831 217.806 860.297 209.42C862.271 203.5 864.367 198.32 866.587 193.88C869.794 186.973 871.767 182.78 872.507 181.3C875.714 174.393 878.797 169.213 881.757 165.76L883.237 164.65L883.977 165.02C886.69 170.94 888.047 175.626 888.047 179.08C888.047 180.066 887.8 181.793 887.307 184.26C885.827 190.673 884.47 195.606 883.237 199.06C882.004 202.513 879.784 206.583 876.577 211.27C872.137 218.176 867.574 223.973 862.887 228.66ZM266.038 697.448C268.011 697.942 269.368 698.189 270.108 698.189C274.055 699.422 277.138 698.312 279.358 694.859C280.345 693.132 281.455 691.282 282.688 689.309C283.921 687.335 285.155 685.115 286.388 682.649C288.115 679.195 289.595 675.989 290.828 673.029C292.061 670.069 293.171 667.602 294.158 665.629C298.351 655.762 301.681 646.019 304.148 636.399C308.588 619.132 311.425 606.059 312.658 597.179C313.151 594.219 313.645 592.245 314.138 591.259L321.168 572.019L323.018 566.469C324.005 564.249 324.868 561.659 325.608 558.699C326.348 557.219 327.335 556.355 328.568 556.109C329.061 556.109 329.431 555.986 329.678 555.739C332.885 555.739 335.721 554.999 338.188 553.519L341.148 552.779C343.861 552.285 348.301 551.052 354.468 549.079C355.948 548.585 357.428 548.215 358.908 547.969L363.348 546.489C368.528 544.762 374.201 542.666 380.368 540.199C389.988 537.486 397.388 534.526 402.568 531.319C404.541 530.086 406.268 529.222 407.748 528.729L411.448 526.879C411.941 526.386 412.558 526.016 413.298 525.769C414.038 525.276 414.778 524.659 415.518 523.919C416.998 522.932 417.121 521.822 415.888 520.589L414.038 518.739C413.051 517.506 411.201 516.396 408.488 515.409C407.008 514.916 405.774 514.669 404.788 514.669C403.554 514.669 402.444 514.792 401.458 515.039L399.238 515.779C397.758 516.272 396.154 516.889 394.428 517.629L388.878 519.479L375.928 523.549C374.201 524.042 372.228 524.782 370.008 525.769C368.034 526.509 365.691 527.249 362.978 527.989C362.238 527.989 361.375 528.236 360.388 528.729C356.935 530.209 350.521 532.306 341.148 535.019C339.175 535.759 337.201 536.129 335.228 536.129H333.748L334.858 531.689L335.968 528.359L341.518 511.709L346.698 495.429L349.288 485.809L355.948 463.609C356.441 462.376 357.305 459.662 358.538 455.469L363.348 439.929L368.158 422.909C368.651 420.936 369.761 416.866 371.488 410.699C373.215 404.533 374.324 398.859 374.818 393.679L376.668 392.939L388.508 390.349C390.481 389.856 394.304 388.993 399.978 387.759L412.928 385.169C420.821 384.183 426.741 383.319 430.688 382.579C436.361 381.839 445.488 379.989 458.068 377.029C459.054 376.783 460.781 375.919 463.248 374.439C464.481 373.946 464.851 373.083 464.358 371.849C463.618 368.643 461.891 366.546 459.178 365.559C458.438 365.313 457.328 365.066 455.848 364.819C454.614 364.326 453.628 363.833 452.888 363.339C451.901 362.846 450.298 362.599 448.078 362.599C446.104 362.599 444.624 362.723 443.638 362.969C437.964 363.956 434.018 364.573 431.798 364.819C430.318 365.066 428.098 365.313 425.138 365.559C422.178 365.806 419.588 366.299 417.368 367.039C416.874 367.286 416.258 367.409 415.518 367.409C412.558 367.656 409.228 368.149 405.528 368.889C402.074 369.629 399.731 370.123 398.498 370.369C393.811 371.356 389.988 372.219 387.028 372.959C381.848 373.946 375.311 375.303 367.418 377.029C362.238 378.016 354.715 379.742 344.848 382.209L334.858 384.429C332.638 385.169 330.295 385.909 327.828 386.649C325.608 387.143 323.265 387.759 320.798 388.499C319.811 388.746 318.825 389.116 317.838 389.609C316.851 390.102 315.865 390.472 314.878 390.719C308.711 392.446 303.778 394.542 300.078 397.009L298.968 397.379C296.995 397.873 293.665 399.476 288.978 402.189C284.785 404.903 281.825 407.616 280.098 410.329C278.125 412.796 277.138 415.139 277.138 417.359L277.508 419.579C277.508 420.566 277.631 421.306 277.878 421.799C278.371 423.526 278.988 424.759 279.728 425.499C283.181 428.952 285.771 431.049 287.498 431.789L291.938 434.009L304.148 438.819C306.615 439.806 309.328 439.436 312.288 437.709C313.275 436.722 313.275 435.859 312.288 435.119C310.068 432.406 307.848 430.802 305.628 430.309C303.901 429.816 302.298 429.322 300.818 428.829L297.118 426.979C296.378 426.732 295.268 426.116 293.788 425.129C292.801 424.636 292.308 424.019 292.308 423.279C292.308 422.292 292.678 421.429 293.418 420.689C295.391 417.976 297.611 416.126 300.078 415.139C305.751 412.179 310.685 410.206 314.878 409.219L317.098 408.479C318.085 407.986 319.441 407.493 321.168 406.999C322.895 406.506 324.251 406.012 325.238 405.519C331.651 403.299 341.518 400.709 354.838 397.749C355.825 397.256 356.688 397.256 357.428 397.749C357.181 397.996 357.058 398.366 357.058 398.859C357.058 399.106 356.935 399.353 356.688 399.599L348.918 419.949C347.438 423.649 345.465 429.199 342.998 436.599C341.765 439.806 340.161 444.616 338.188 451.029L334.858 461.389L328.198 481.739L321.538 502.089L315.988 517.629C315.001 521.329 313.645 525.522 311.918 530.209L308.958 539.089L307.848 542.419C307.108 543.652 306.121 543.899 304.888 543.159C304.395 542.666 304.025 542.419 303.778 542.419C298.351 536.252 290.828 533.169 281.208 533.169C278.248 533.169 276.028 533.292 274.548 533.539C270.601 534.279 266.531 535.389 262.338 536.869C260.365 537.609 258.145 539.459 255.678 542.419C254.691 543.899 254.198 545.502 254.198 547.229C254.198 549.202 254.938 550.929 256.418 552.409C258.885 554.875 260.365 556.232 260.858 556.479C266.038 558.699 269.245 560.055 270.478 560.549C273.438 561.536 275.658 562.029 277.138 562.029C278.865 562.275 281.578 562.399 285.278 562.399C289.965 562.399 294.775 562.029 299.708 561.289L300.448 561.659C300.695 562.646 300.571 563.632 300.078 564.619L293.788 582.379C288.361 597.672 284.168 609.142 281.208 616.789C277.015 628.629 274.301 636.152 273.068 639.359C269.121 650.212 265.791 661.559 263.078 673.399C261.598 678.579 260.735 682.772 260.488 685.979C259.995 688.445 260.118 690.665 260.858 692.638C261.598 695.105 263.325 696.708 266.038 697.448ZM276.028 547.969C275.041 547.969 274.301 547.846 273.808 547.599C273.808 546.612 274.425 545.872 275.658 545.379C280.591 543.406 284.415 542.419 287.128 542.419C289.101 542.666 290.335 542.912 290.828 543.159C291.568 543.406 292.801 544.269 294.528 545.749C292.308 546.489 290.088 546.859 287.868 546.859C284.415 547.352 281.948 547.599 280.468 547.599L276.028 547.969ZM413.893 652.679C409.453 652.925 405.63 651.075 402.423 647.129C400.697 645.402 399.34 642.195 398.353 637.509C397.86 634.795 397.613 630.725 397.613 625.299C397.613 620.859 397.737 617.529 397.983 615.309C397.983 614.815 398.723 609.142 400.203 598.289L401.313 590.519L406.123 565.729L410.563 548.339C411.55 543.652 412.907 537.856 414.633 530.949L415.003 529.839L418.703 516.519C420.677 509.119 422.033 503.569 422.773 499.869L425.363 490.619C425.61 490.126 425.98 489.262 426.473 488.029C426.966 486.796 427.336 485.686 427.583 484.699C428.076 483.219 429.803 477.546 432.763 467.679C436.093 457.69 438.046 451.944 438.624 450.439C438.799 450.017 440.915 444.787 444.973 434.749L448.673 425.499C452.866 416.126 456.69 408.726 460.143 403.299C462.61 399.106 465.076 395.652 467.543 392.939C468.776 391.212 471.366 388.869 475.313 385.909H475.683C477.903 384.429 481.48 383.689 486.413 383.689C488.14 383.689 489.99 383.936 491.963 384.429C494.923 385.169 496.773 386.773 497.513 389.239C498.993 391.953 500.103 395.652 500.843 400.339C501.583 408.972 500.843 418.962 498.623 430.309C498.13 432.282 497.513 434.626 496.773 437.339C496.28 440.052 495.786 443.259 495.293 446.959C493.32 455.592 491.223 463.239 489.003 469.899C487.523 474.832 485.18 481.246 481.973 489.139C481.233 490.619 480.493 491.976 479.753 493.209L478.273 496.909C473.34 506.776 468.9 514.669 464.953 520.589L457.183 531.689C455.703 533.909 452.99 536.992 449.043 540.939C445.836 544.639 442.137 547.969 437.943 550.929L431.283 554.629C430.543 556.849 429.68 560.425 428.693 565.359C427.213 570.785 426.227 575.472 425.733 579.419L424.253 587.189C424.007 589.162 423.39 592.122 422.403 596.069L419.813 617.899C418.827 624.805 418.333 630.109 418.333 633.809L419.073 640.469C421.047 639.729 422.773 638.495 424.253 636.769C428.447 633.069 431.407 629.985 433.133 627.519L443.123 614.939C444.603 612.965 445.59 611.362 446.083 610.129L463.843 582.009C469.976 572.531 475.128 564.104 479.301 556.726C480.441 552.967 481.735 549.185 483.181 545.379C483.921 542.912 484.908 540.199 486.141 537.239C487.375 534.279 488.238 532.059 488.731 530.579C489.718 527.619 492.431 526.139 496.871 526.139C499.585 526.139 501.558 526.632 502.791 527.619C504.765 528.852 505.628 530.579 505.381 532.799C504.888 537.732 504.271 541.432 503.531 543.899C502.791 546.859 501.558 552.532 499.831 560.919L495.391 580.159L492.431 597.179V597.919C492.431 598.165 492.678 598.165 493.171 597.919C495.391 596.439 496.625 595.575 496.871 595.329C501.558 591.382 506.861 586.079 512.781 579.419L520.181 570.539C526.841 562.399 532.268 554.506 536.461 546.859L539.051 541.679L542.751 532.799C543.738 530.086 546.081 528.729 549.781 528.729C552.495 528.729 554.838 529.469 556.811 530.949L560.141 533.909C560.388 534.649 560.511 535.759 560.511 537.239C560.511 538.966 560.388 540.199 560.141 540.939L556.811 554.629L553.481 567.949L551.261 579.049L548.301 596.809L546.821 607.539L546.451 611.609L546.821 616.049C547.068 615.802 547.315 615.679 547.561 615.679C548.055 615.679 548.425 615.555 548.671 615.309C555.578 607.415 566.308 589.655 580.861 562.029C584.607 554.734 587.566 549.329 589.736 545.817L593.146 533.539L596.476 522.439C596.97 521.206 597.833 518.492 599.066 514.299C601.78 505.666 605.11 495.799 609.056 484.699L614.976 469.159C616.703 464.719 618.306 460.896 619.786 457.689L622.746 450.659C626.939 441.532 630.639 434.132 633.846 428.459C639.026 419.332 643.959 411.809 648.646 405.889C653.086 400.709 655.183 398.243 654.936 398.489C660.363 393.556 663.939 390.596 665.666 389.609C666.406 389.116 667.516 388.623 668.996 388.129C671.956 387.143 674.176 386.526 675.656 386.279C676.396 386.033 677.383 385.909 678.616 385.909C681.823 385.909 684.783 386.896 687.496 388.869C690.209 390.843 692.183 393.432 693.416 396.639C694.403 399.352 694.896 403.422 694.896 408.849C694.649 414.029 693.663 419.949 691.936 426.609C688.729 438.942 684.289 450.906 678.616 462.499C674.176 471.379 669.983 479.272 666.036 486.179C664.309 489.386 661.473 494.196 657.526 500.609C653.826 507.022 648.769 514.299 642.356 522.439C635.943 530.579 631.749 535.636 629.776 537.609C630.023 537.362 627.926 539.829 623.486 545.009L617.566 550.929L610.536 557.589C609.056 559.069 608.316 560.426 608.316 561.659L604.246 577.569C604 580.035 603.383 582.872 602.396 586.079C602.89 586.572 603.753 586.819 604.986 586.819C614.36 581.885 625.459 574.855 638.286 565.729C651.113 556.602 660.733 549.079 667.146 543.159C667.613 542.656 668.081 542.189 668.548 541.759L670.832 533.539L674.162 522.439C674.655 521.206 675.518 518.492 676.752 514.299C679.465 505.666 682.795 495.799 686.742 484.699L692.662 469.159C694.388 464.719 695.992 460.896 697.472 457.689L700.432 450.659C704.625 441.532 708.325 434.132 711.531 428.459C716.711 419.332 721.645 411.809 726.332 405.889C730.771 400.709 732.868 398.243 732.621 398.489C738.048 393.556 741.625 390.596 743.352 389.609C744.091 389.116 745.201 388.623 746.681 388.129C749.641 387.143 751.861 386.526 753.341 386.279C754.081 386.033 755.068 385.909 756.301 385.909C759.508 385.909 762.468 386.896 765.181 388.869C767.895 390.843 769.868 393.432 771.101 396.639C772.088 399.352 772.581 403.422 772.581 408.849C772.335 414.029 771.348 419.949 769.621 426.609C766.415 438.942 761.975 450.906 756.301 462.499C751.861 471.379 747.668 479.272 743.721 486.179C741.995 489.386 739.158 494.196 735.211 500.609C731.511 507.022 726.455 514.299 720.042 522.439C713.628 530.579 709.435 535.636 707.461 537.609C707.708 537.362 705.612 539.829 701.172 545.009L695.252 550.929L688.222 557.589C686.742 559.069 686.002 560.426 686.002 561.659L681.932 577.569C681.685 580.035 681.068 582.872 680.082 586.079C680.575 586.572 681.438 586.819 682.672 586.819C692.045 581.885 703.145 574.855 715.971 565.729C728.798 556.602 738.418 549.079 744.831 543.159C745.321 542.632 745.811 542.145 746.3 541.698C747.559 539.095 748.914 536.375 750.367 533.539C751.107 532.059 751.6 531.196 751.847 530.949C752.834 529.962 754.56 529.469 757.027 529.469C759.494 529.469 761.837 530.086 764.057 531.319C766.277 532.306 768.004 533.786 769.237 535.759C770.224 537.732 770.347 539.706 769.607 541.679L765.167 553.519L759.617 568.319C756.657 578.432 754.807 585.709 754.067 590.149C753.574 592.122 753.574 593.725 754.067 594.959C757.52 592.492 761.714 588.545 766.647 583.119C769.36 580.159 771.95 576.705 774.417 572.759C776.884 568.812 778.487 566.222 779.227 564.989C782.434 560.055 787.244 551.176 793.657 538.349C794.397 537.362 795.014 536.129 795.507 534.649C796.247 532.922 796.74 531.812 796.987 531.319C797.974 529.346 799.947 528.359 802.907 528.359C805.62 528.359 808.21 529.222 810.677 530.949C813.39 532.429 814.87 534.156 815.117 536.129V538.719C815.117 539.952 814.87 542.296 814.377 545.749L807.347 574.239C807.1 574.732 806.977 575.719 806.977 577.199C807.138 577.086 807.302 577 807.47 576.935C818.818 564.839 833.332 543.864 831.17 524.404C830.214 515.798 825.461 506.875 820.261 497.112C809.743 477.365 797.396 454.182 810.936 423.233C817.905 407.302 827.637 397.82 837.413 392.367C833.749 397.143 831.344 403.007 832.52 409.706C843.756 396.375 851.098 393.188 858.419 390.012L858.502 389.975L859.011 389.754C864.595 387.327 870.916 386.358 877.942 386.717C880.248 387.054 882.496 387.465 884.685 387.947C877.316 389.413 870.419 393.397 864.68 400.981C887.476 387.77 912.051 398.487 929.275 413.667C936 421.301 941.012 429.719 941.012 434.795C937.158 432.868 925.981 429.592 912.106 431.905C894.762 434.795 859.08 448.16 880 490C888.285 506.57 893.71 517.42 887.599 534.392C885.2 539.363 881.838 544.919 877.109 550.161C868.128 560.117 844.06 575.233 825.406 576.775C830.99 580.64 838.102 581.09 845.485 579.646C842.137 581.418 838.644 583.222 835.104 585.05L835.102 585.051C822.185 591.722 808.617 598.728 799.014 605.775C798.479 606.645 798.05 607.726 797.727 609.019L792.177 629.739L784.777 656.379L781.077 668.589L777.007 683.389C773.554 695.229 770.84 704.109 768.867 710.029C766.894 716.442 765.29 721.128 764.057 724.088L761.097 731.859C759.864 736.792 758.384 740.862 756.657 744.068C755.917 745.302 755.054 747.398 754.067 750.358C751.354 756.772 747.654 764.542 742.967 773.668C740.007 779.588 735.937 785.755 730.757 792.168C727.797 795.128 725.33 797.225 723.357 798.458C721.137 799.692 719.164 800.185 717.437 799.938C715.957 799.938 714.354 799.692 712.627 799.198C710.9 798.705 709.667 798.335 708.927 798.088C705.967 796.855 703.747 794.512 702.267 791.058C700.787 787.852 699.8 782.672 699.307 775.518C699.307 768.365 700.047 761.088 701.527 753.688C705.72 732.229 712.75 712.125 722.617 693.379C726.317 686.225 729.77 679.812 732.977 674.139C733.717 672.659 734.457 671.302 735.197 670.069L736.677 667.109C741.364 658.969 747.284 649.965 754.437 640.099C757.644 635.659 762.7 629.492 769.607 621.599C771.827 618.885 773.307 615.802 774.047 612.349L778.857 594.959L779.967 590.519C779.967 590.025 780.09 589.409 780.337 588.669C780.83 587.682 781.077 586.695 781.077 585.709L778.857 587.929L769.237 598.659L763.687 604.579C762.7 605.565 760.974 606.799 758.507 608.279L756.657 609.019C755.424 610.252 753.82 610.869 751.847 610.869C750.12 610.869 748.517 610.499 747.037 609.759L743.337 608.649C740.624 608.155 738.034 606.429 735.567 603.469C735.074 602.975 734.58 601.989 734.087 600.509C732.607 594.589 731.99 590.025 732.237 586.819C732.73 580.159 733.47 574.979 734.457 571.279C735.035 568.965 735.741 566.651 736.574 564.338C732.874 567.17 728.967 570.101 724.851 573.129C711.778 582.502 699.692 589.779 688.592 594.959L689.702 597.549C692.168 601.002 694.265 605.442 695.992 610.869C696.978 614.075 697.718 617.529 698.212 621.229C698.705 627.149 698.952 631.835 698.952 635.289C698.952 638.989 698.828 641.825 698.582 643.799C697.348 652.679 694.388 660.572 689.702 667.479C687.235 670.192 684.892 672.412 682.672 674.139C680.698 676.112 678.232 677.099 675.272 677.099C671.818 677.099 667.502 676.235 662.322 674.509L661.212 673.769C658.498 671.795 656.278 669.082 654.552 665.629C654.305 663.902 653.688 661.682 652.702 658.969C651.715 656.502 651.222 654.282 651.222 652.309V650.829C651.222 649.595 651.098 648.115 650.852 646.389C650.605 644.662 650.605 643.182 650.852 641.949C650.852 635.535 651.222 628.999 651.962 622.339C652.208 618.639 652.825 613.335 653.812 606.429C654.305 603.469 654.798 601.125 655.292 599.399L653.812 597.549C652.578 595.822 651.962 594.095 651.962 592.369C651.962 589.409 653.195 587.065 655.662 585.339L657.142 584.229L658.252 582.749C658.498 582.502 658.622 582.132 658.622 581.639L660.842 571.279L658.252 570.169C658.745 567.702 658.992 566.222 658.992 565.729L662.692 563.879C662.692 563.089 662.85 562.14 663.166 561.034C658.237 564.875 652.903 568.907 647.166 573.129C634.093 582.502 622.006 589.779 610.906 594.959L612.016 597.549C614.483 601.002 616.58 605.442 618.306 610.869C619.293 614.075 620.033 617.529 620.526 621.229C621.02 627.149 621.266 631.835 621.266 635.289C621.266 638.989 621.143 641.825 620.896 643.799C619.663 652.679 616.703 660.572 612.016 667.479C609.55 670.192 607.206 672.412 604.986 674.139C603.013 676.112 600.546 677.099 597.586 677.099C594.133 677.099 589.816 676.235 584.636 674.509L583.526 673.769C580.813 671.795 578.593 669.082 576.866 665.629C576.62 663.902 576.003 661.682 575.016 658.969C574.03 656.502 573.536 654.282 573.536 652.309V650.829C573.536 649.595 573.413 648.115 573.166 646.389C572.92 644.662 572.92 643.182 573.166 641.949C573.166 635.535 573.536 628.999 574.276 622.339C574.523 618.639 575.14 613.335 576.126 606.429C576.62 603.469 577.113 601.125 577.606 599.399L576.126 597.549C576.057 597.452 575.99 597.356 575.925 597.259C575.854 597.153 575.784 597.046 575.717 596.94C575.667 596.861 575.619 596.782 575.572 596.704C572.773 601.642 570.22 605.871 567.911 609.389C562.978 617.282 557.428 622.832 551.261 626.039C550.028 626.532 548.178 626.779 545.711 626.779C539.791 626.285 535.105 623.819 531.651 619.379C528.938 615.432 527.335 610.375 526.841 604.209V600.509C526.841 596.315 526.965 593.232 527.211 591.259C527.458 587.559 527.951 582.995 528.691 577.569C528.198 577.569 527.335 578.185 526.101 579.419C522.155 585.092 517.345 591.135 511.671 597.549C508.218 601.495 504.271 605.072 499.831 608.279L497.611 609.389C496.871 609.882 496.008 610.375 495.021 610.869C494.528 611.115 493.171 611.239 490.951 611.239C482.565 611.239 477.015 608.279 474.301 602.359C473.315 599.645 472.821 596.809 472.821 593.849C472.821 592.209 472.878 590.589 472.991 588.988C465.936 600.935 459.68 610.942 454.223 619.009L444.973 631.589C444.48 632.082 441.15 635.782 434.983 642.689C432.763 645.402 429.68 647.992 425.733 650.459C424.007 651.445 421.293 652.185 417.593 652.679H415.743C415.003 652.925 414.387 652.925 413.893 652.679ZM438.624 450.439C438.609 450.476 438.609 450.476 438.623 450.44L438.647 450.379L438.68 450.297C438.663 450.339 438.645 450.386 438.624 450.439ZM435.723 538.719C436.957 538.226 437.82 537.362 438.313 536.129C444.233 529.222 448.426 523.919 450.893 520.219C456.32 511.339 459.773 505.542 461.253 502.829C468.16 490.002 474.203 475.449 479.383 459.169C482.836 447.822 485.18 435.859 486.413 423.279C486.906 420.566 487.153 416.496 487.153 411.069C487.153 406.629 487.03 403.299 486.783 401.079C486.783 400.586 486.66 399.846 486.413 398.859C486.166 397.626 485.673 396.393 484.933 395.159L481.603 399.599C477.41 406.506 473.71 414.399 470.503 423.279C469.516 425.499 468.283 428.459 466.803 432.159C465.57 435.612 464.583 438.449 463.843 440.669L457.553 459.169L452.003 475.449C451.016 479.396 449.66 483.959 447.933 489.139C447.933 489.632 447.686 490.619 447.193 492.099L442.753 508.749C442.507 510.969 441.89 513.682 440.903 516.889L438.683 525.029L438.313 526.139C437.82 527.619 437.327 529.592 436.833 532.059C436.34 534.526 435.847 536.499 435.353 537.979L435.723 538.719ZM596.846 663.039C597.093 663.039 597.34 662.915 597.586 662.669H597.956C600.67 659.462 602.15 657.489 602.396 656.749C605.11 651.322 606.836 645.649 607.576 639.729C608.07 634.795 608.316 631.219 608.316 628.999C608.316 621.845 607.33 615.679 605.356 610.499C604.616 608.279 603.26 605.195 601.286 601.249C601.286 601.002 601.04 600.755 600.546 600.509C600.3 600.262 600.053 600.262 599.806 600.509C598.326 607.415 597.34 612.719 596.846 616.419C595.86 624.805 595.243 631.219 594.996 635.659C594.503 643.799 594.873 652.185 596.106 660.819C596.106 661.312 596.353 662.052 596.846 663.039ZM618.306 532.799C624.473 525.399 627.68 521.452 627.926 520.959C634.34 512.572 639.026 506.159 641.986 501.719L654.196 481.369C656.909 476.929 660.486 470.022 664.926 460.649C671.339 447.576 675.779 435.612 678.246 424.759C679.973 418.592 680.836 411.809 680.836 404.409C680.836 401.943 680.343 399.722 679.356 397.749C678.123 398.242 676.889 399.106 675.656 400.339C673.683 401.819 671.216 404.779 668.256 409.219C664.803 413.659 662.459 417.112 661.226 419.579C655.306 430.432 651.113 438.819 648.646 444.739C647.413 446.959 646.18 449.672 644.946 452.879L637.176 472.119C634.216 479.519 632.12 485.192 630.886 489.139C627.433 498.512 624.966 505.542 623.486 510.229L622.376 514.299L617.936 527.619C617.936 528.112 617.69 528.976 617.196 530.209C616.95 531.196 616.95 532.306 617.196 533.539L618.306 532.799ZM675.272 662.669C675.025 662.915 674.778 663.039 674.532 663.039C674.038 662.052 673.792 661.312 673.792 660.819C672.558 652.185 672.188 643.799 672.682 635.659C672.928 631.219 673.545 624.805 674.532 616.419C675.025 612.719 676.012 607.415 677.492 600.509C677.738 600.262 677.985 600.262 678.232 600.509C678.725 600.755 678.972 601.002 678.972 601.249C680.945 605.195 682.302 608.279 683.042 610.499C685.015 615.679 686.002 621.845 686.002 628.999C686.002 631.219 685.755 634.795 685.262 639.729C684.522 645.649 682.795 651.322 680.082 656.749C679.835 657.489 678.355 659.462 675.642 662.669H675.272ZM705.612 520.959C705.365 521.452 702.158 525.399 695.992 532.799L694.882 533.539C694.635 532.306 694.635 531.196 694.882 530.209C695.375 528.976 695.622 528.112 695.622 527.619L700.062 514.299L701.172 510.229C702.652 505.542 705.118 498.512 708.572 489.139C709.805 485.192 711.901 479.519 714.862 472.119L722.632 452.879C723.865 449.672 725.098 446.959 726.332 444.739C728.798 438.819 732.991 430.432 738.911 419.579C740.145 417.112 742.488 413.659 745.941 409.219C748.901 404.779 751.368 401.819 753.341 400.339C754.575 399.106 755.808 398.242 757.041 397.749C758.028 399.722 758.521 401.943 758.521 404.409C758.521 411.809 757.658 418.592 755.931 424.759C753.465 435.612 749.025 447.576 742.611 460.649C738.171 470.022 734.595 476.929 731.881 481.369L719.672 501.719C716.711 506.159 712.025 512.572 705.612 520.959ZM714.477 788.098L716.327 786.248C718.3 784.275 720.15 781.808 721.877 778.848C723.357 776.135 724.344 774.285 724.837 773.298C727.304 768.365 730.264 760.718 733.717 750.358L740.007 731.118C741.24 725.938 742.474 721.745 743.707 718.539L756.657 675.249L763.317 651.569L764.427 647.129L762.577 648.979C762.084 649.719 761.59 650.335 761.097 650.829C757.644 656.255 754.93 660.202 752.957 662.669C748.27 669.822 742.72 679.812 736.307 692.638C734.087 696.585 732.237 700.409 730.757 704.109L727.427 710.768C719.04 728.775 713.984 747.645 712.257 767.378C712.01 768.612 711.887 770.462 711.887 772.928C711.887 774.655 712.134 777.738 712.627 782.178C713.12 784.645 713.737 786.618 714.477 788.098Z" fill="#FF3B9D"/>
</svg>
