<svg width="39" height="39" viewBox="0 0 39 39" fill="none" xmlns="http://www.w3.org/2000/svg">
<path d="M0.976563 0L18.4345 15.5649C18.8431 15.9293 19.6185 15.9293 20.027 15.5649L37.485 0H0.976563ZM0 1.69769V23.5276L12.6953 13.0259L0 1.69769ZM38.4615 1.69769L25.7662 13.0259L38.4615 23.5276V1.69769ZM14.1526 14.3179L1.247 25H37.2145L24.3089 14.3179L21.3191 16.9922C20.1371 18.0463 18.3244 18.0463 17.1424 16.9922L14.1526 14.3179V14.3179Z" fill="#767876"/>
<path fill-rule="evenodd" clip-rule="evenodd" d="M22.3431 22.2929L28.7071 28.6569C29.0976 29.0474 29.0976 29.6805 28.7071 30.0711L22.3431 36.435C21.9526 36.8256 21.3195 36.8256 20.9289 36.435C20.5384 36.0445 20.5384 35.4113 20.9289 35.0208L25.5858 30.364L9 30.364L9 28.364L25.5858 28.364L20.9289 23.7071C20.5384 23.3166 20.5384 22.6834 20.9289 22.2929C21.3195 21.9024 21.9526 21.9024 22.3431 22.2929Z" fill="#767876"/>
<path fill-rule="evenodd" clip-rule="evenodd" d="M22.3431 36.435C21.9526 36.8256 21.3195 36.8256 20.9289 36.435C20.5384 36.0445 20.5384 35.4113 20.9289 35.0208L25.5858 30.364L9 30.364L9 28.364L25.5858 28.364L20.9289 23.7071C20.5384 23.3166 20.5384 22.6834 20.9289 22.2929C21.3195 21.9024 21.9526 21.9024 22.3431 22.2929C22.3431 22.2928 22.3432 22.2929 22.3431 22.2929L28.7071 28.6569C28.707 28.6567 28.7072 28.657 28.7071 28.6569C29.0972 29.0474 29.0975 29.6807 28.7071 30.0711L22.3431 36.435ZM30.1213 27.2426C31.2929 28.4142 31.2929 30.3137 30.1213 31.4853L23.7574 37.8492C22.5858 39.0208 20.6863 39.0208 19.5147 37.8492C18.3431 36.6777 18.3431 34.7782 19.5147 33.6066L20.7574 32.364L7 32.364L7 26.364L20.7574 26.364L19.5147 25.1213C18.3431 23.9497 18.3431 22.0503 19.5147 20.8787C20.6863 19.7071 22.5858 19.7071 23.7574 20.8787L30.1213 27.2426Z" fill="white"/>
</svg>
