<svg width="14" height="17" viewBox="0 0 14 17" fill="none" xmlns="http://www.w3.org/2000/svg">
<path d="M10.6422 10.8033C10.4591 10.8573 10.1903 10.8634 9.90202 10.8216C9.59274 10.7766 9.2772 10.6821 8.96713 10.5428C9.52011 10.4624 9.94913 10.4871 10.316 10.6172C10.403 10.648 10.5458 10.7303 10.6422 10.8033ZM7.55689 10.296C7.53436 10.3021 7.51229 10.3079 7.49022 10.314C7.34137 10.3545 7.19659 10.394 7.05713 10.4292L6.86899 10.4769C6.49053 10.5727 6.10362 10.6705 5.72155 10.787C5.8668 10.4367 6.00172 10.0826 6.13382 9.73642C6.23165 9.4802 6.33151 9.21834 6.43481 8.95993C6.48724 9.04649 6.54187 9.13304 6.59884 9.21991C6.85804 9.61481 7.18391 9.97997 7.55689 10.296ZM6.5943 6.34653C6.61888 6.77868 6.52559 7.1944 6.38879 7.59321C6.22038 7.10002 6.14181 6.55549 6.35248 6.11582C6.40648 6.00313 6.45077 5.94287 6.47942 5.91141C6.52371 5.97997 6.58209 6.13304 6.5943 6.34653ZM4.61872 11.8209C4.52403 11.9903 4.42745 12.1488 4.32838 12.2985C4.08937 12.6586 3.69854 13.0443 3.49773 13.0443C3.47801 13.0443 3.45406 13.0412 3.41916 13.0042C3.39662 12.9806 3.39302 12.9637 3.39411 12.9407C3.40085 12.8083 3.5763 12.5724 3.83049 12.3537C4.0612 12.1553 4.32196 11.979 4.61872 11.8209ZM11.2817 10.8219C11.2511 10.3808 10.5085 10.0978 10.5012 10.0952C10.2141 9.99343 9.90233 9.94397 9.54797 9.94397C9.16857 9.94397 8.75959 9.9989 8.23431 10.1216C7.76694 9.79026 7.36312 9.37549 7.06151 8.91626C6.92831 8.71341 6.80858 8.51088 6.70418 8.31304C6.95899 7.70371 7.18845 7.04852 7.14682 6.31476C7.11316 5.72641 6.84786 5.33119 6.48709 5.33119C6.23963 5.33119 6.02645 5.51448 5.85319 5.87651C5.54406 6.52168 5.62529 7.34716 6.09454 8.33213C5.9255 8.72907 5.76851 9.14055 5.61653 9.53905C5.42745 10.0344 5.23259 10.5455 5.01299 11.0316C4.39709 11.2753 3.89122 11.5708 3.46956 11.9336C3.1933 12.1709 2.86039 12.5336 2.84129 12.9122C2.83206 13.0905 2.8931 13.254 3.01737 13.385C3.14932 13.5242 3.31523 13.5974 3.49757 13.5976C4.09986 13.5976 4.67945 12.7701 4.78933 12.6042C5.01064 12.2706 5.21772 11.8986 5.42072 11.4694C5.93191 11.2847 6.47676 11.1468 7.0047 11.0135L7.19377 10.9654C7.33589 10.9293 7.48364 10.8893 7.63515 10.8479C7.79559 10.8045 7.96056 10.7596 8.12819 10.7169C8.67037 11.0617 9.2534 11.2866 9.82204 11.3691C10.301 11.4387 10.7264 11.3983 11.0142 11.2482C11.2734 11.1133 11.2878 10.9051 11.2817 10.8219ZM12.4481 14.6147C12.4481 15.4224 11.7361 15.4722 11.5924 15.4739H2.40679C1.60197 15.4739 1.55345 14.7571 1.55189 14.6147V2.41133C1.55189 1.60275 2.26514 1.55376 2.40679 1.55204H8.61199L8.61528 1.55533V3.97684C8.61528 4.46283 8.90906 5.38285 10.0218 5.38285H12.4275L12.4481 5.40351V14.6147V14.6147ZM11.8778 4.8308H10.0219C9.21725 4.8308 9.16857 4.11786 9.16748 3.97684V2.10941L11.8778 4.8308ZM13 14.6147V5.17561L9.16748 1.32712V1.30928H9.14916L8.84145 1H2.40679C1.92018 1 1 1.29504 1 2.41133V14.6148C1 15.1028 1.2941 16.026 2.40679 16.026H11.5934C12.0798 16.0258 13 15.7309 13 14.6147Z" fill="#FF6F61" stroke="#FF6F61" stroke-width="0.1"/>
</svg>
