<svg width="152" height="32" viewBox="0 0 152 32" fill="none" xmlns="http://www.w3.org/2000/svg">
<path fill-rule="evenodd" clip-rule="evenodd" d="M4.8 4.8H27.2V9.92V27.2V32H32V27.2V4.8V0H27.2H4.8H0V4.8V27.2V32H4.8H22.4V27.2H4.8V4.8Z" fill="#D2D6D2"/>
<path fill-rule="evenodd" clip-rule="evenodd" d="M67.2 4.8L67.2 27.2L62.08 27.2L44.8 27.2L40 27.2L40 32L44.8 32L67.2 32L72 32L72 27.2L72 4.8L72 0L67.2 -2.09815e-07L44.8 -1.18895e-06L40 -1.39876e-06L40 4.8L40 22.4L44.8 22.4L44.8 4.8L67.2 4.8Z" fill="#D2D6D2"/>
<path fill-rule="evenodd" clip-rule="evenodd" d="M107.2 27.2L84.8 27.2L84.8 22.08L84.8 4.8L84.8 -1.66264e-06L80 -2.08227e-06L80 4.8L80 27.2L80 32L84.8 32L107.2 32L112 32L112 27.2L112 4.8L112 7.15256e-07L107.2 2.95626e-07L89.6 -1.24301e-06L89.6 4.8L107.2 4.8L107.2 27.2Z" fill="#D2D6D2"/>
<path fill-rule="evenodd" clip-rule="evenodd" d="M124.8 27.2L124.8 4.8L129.92 4.8L147.2 4.8L152 4.8L152 -6.83509e-07L147.2 -4.73694e-07L124.8 5.05441e-07L120 7.15256e-07L120 4.8L120 27.2L120 32L124.8 32L147.2 32L152 32L152 27.2L152 9.6L147.2 9.6L147.2 27.2L124.8 27.2Z" fill="#D2D6D2"/>
</svg>
