<svg width="32" height="32" viewBox="0 0 32 32" fill="none" xmlns="http://www.w3.org/2000/svg">
<path d="M29.8537 7.96873C28.4229 5.51729 26.4822 3.57647 24.031 2.14585C21.5794 0.715163 18.903 0 15.9999 0C13.0971 0 10.4198 0.715382 7.96873 2.14585C5.51729 3.5764 3.57662 5.51729 2.14585 7.96873C0.715309 10.4201 0 13.097 0 15.9994C0 19.4858 1.01718 22.6209 3.05205 25.4055C5.0867 28.1902 7.71517 30.1172 10.9372 31.1865C11.3123 31.2562 11.5899 31.2072 11.7705 31.0409C11.9511 30.8744 12.0412 30.6658 12.0412 30.4161C12.0412 30.3745 12.0377 29.9996 12.0307 29.2912C12.0236 28.5827 12.0202 27.9647 12.0202 27.4374L11.541 27.5203C11.2355 27.5762 10.8501 27.5999 10.3848 27.5932C9.91969 27.5867 9.43686 27.538 8.93695 27.4474C8.43683 27.3575 7.97165 27.1492 7.54107 26.8228C7.1107 26.4964 6.80518 26.0692 6.62458 25.5418L6.41626 25.0624C6.2774 24.7432 6.05879 24.3887 5.76013 24C5.46147 23.611 5.15945 23.3473 4.85393 23.2085L4.70807 23.1041C4.61087 23.0347 4.52068 22.951 4.43728 22.8538C4.35395 22.7567 4.29156 22.6595 4.2499 22.5622C4.20816 22.4648 4.24275 22.3849 4.35402 22.3222C4.4653 22.2595 4.6664 22.2291 4.9582 22.2291L5.37471 22.2913C5.6525 22.347 5.99611 22.5133 6.40597 22.7912C6.81561 23.069 7.15236 23.43 7.41629 23.8742C7.73589 24.4438 8.12095 24.8778 8.57255 25.1765C9.02378 25.4752 9.47874 25.6242 9.93698 25.6242C10.3952 25.6242 10.791 25.5895 11.1245 25.5204C11.4576 25.4509 11.7701 25.3465 12.0619 25.2077C12.1869 24.2768 12.5272 23.5616 13.0826 23.0617C12.291 22.9786 11.5794 22.8533 10.9472 22.6867C10.3155 22.5199 9.66262 22.2492 8.98912 21.8738C8.31526 21.499 7.75625 21.0335 7.31194 20.4782C6.86757 19.9226 6.50287 19.1932 6.21837 18.2907C5.93372 17.3878 5.79136 16.3462 5.79136 15.1658C5.79136 13.4849 6.34008 12.0546 7.4373 10.874C6.92332 9.6103 6.97184 8.1937 7.58302 6.62429C7.98581 6.49915 8.58313 6.59306 9.37469 6.90544C10.1664 7.21796 10.7461 7.48568 11.1143 7.70765C11.4825 7.92955 11.7775 8.11759 11.9997 8.27009C13.2916 7.90912 14.6248 7.72859 15.9997 7.72859C17.3746 7.72859 18.7081 7.90912 20.0001 8.27009L20.7917 7.77033C21.333 7.43687 21.9723 7.13128 22.708 6.85348C23.4441 6.57584 24.007 6.49937 24.396 6.62451C25.0208 8.19399 25.0765 9.61052 24.5623 10.8742C25.6595 12.0548 26.2084 13.4855 26.2084 15.166C26.2084 16.3465 26.0656 17.3913 25.7813 18.3011C25.4968 19.2111 25.1289 19.9398 24.6777 20.4887C24.2259 21.0374 23.6634 21.4993 22.9899 21.874C22.3162 22.2491 21.6632 22.5198 21.0314 22.6866C20.3993 22.8534 19.6877 22.9788 18.8961 23.0621C19.6181 23.6869 19.9791 24.673 19.9791 26.0202V30.4156C19.9791 30.6653 20.0659 30.8737 20.2398 31.0403C20.4133 31.2066 20.6875 31.2556 21.0625 31.1859C24.2851 30.1167 26.9135 28.1897 28.9481 25.4049C30.9825 22.6204 32 19.4853 32 15.9988C31.9993 13.0968 31.2836 10.4201 29.8537 7.96873Z" fill="#767876"/>
</svg>
