<svg width="32" height="32" viewBox="0 0 32 32" fill="none" xmlns="http://www.w3.org/2000/svg">
<path d="M32 19.4583V31.2889H25.1414V20.2507C25.1414 17.4778 24.1493 15.5854 21.6667 15.5854C19.7716 15.5854 18.6438 16.8607 18.1476 18.0944C17.9667 18.5354 17.9201 19.1493 17.9201 19.7666V31.2889H11.0592C11.0592 31.2889 11.1516 12.5937 11.0592 10.6568H17.9194V13.5813C17.9055 13.6032 17.8874 13.6268 17.8744 13.648H17.9194V13.5813C18.8309 12.1775 20.4587 10.1721 24.1021 10.1721C28.6161 10.172 32 13.1209 32 19.4583ZM3.88233 0.71106C1.53521 0.71106 0 2.25059 0 4.27511C0 6.25552 1.49079 7.84177 3.79127 7.84177H3.8371C6.22967 7.84177 7.71764 6.25582 7.71764 4.27511C7.67255 2.25059 6.22967 0.71106 3.88233 0.71106ZM0.40748 31.2889H7.26582V10.6568H0.40748V31.2889Z" fill="#767876"/>
</svg>
