<svg width="12" height="16" viewBox="0 0 12 16" fill="none" xmlns="http://www.w3.org/2000/svg">
<path d="M9.6422 9.80326C9.45907 9.85726 9.19033 9.86336 8.90202 9.82157C8.59274 9.77665 8.2772 9.68211 7.96713 9.54281C8.52011 9.46236 8.94913 9.48709 9.31601 9.61716C9.40304 9.64799 9.54578 9.73032 9.6422 9.80326ZM6.55689 9.29598C6.53436 9.30208 6.51229 9.30787 6.49022 9.31398C6.34137 9.35452 6.19659 9.39396 6.05713 9.42918L5.86899 9.47691C5.49053 9.5727 5.10362 9.67053 4.72155 9.78698C4.8668 9.43669 5.00172 9.08264 5.13382 8.73642C5.23165 8.4802 5.33151 8.21834 5.43481 7.95993C5.48724 8.04649 5.54187 8.13304 5.59884 8.21991C5.85804 8.61481 6.18391 8.97997 6.55689 9.29598ZM5.5943 5.34653C5.61888 5.77868 5.52559 6.1944 5.38879 6.59321C5.22038 6.10002 5.14181 5.55549 5.35248 5.11582C5.40648 5.00313 5.45078 4.94287 5.47942 4.91141C5.52371 4.97997 5.58209 5.13304 5.5943 5.34653ZM3.61872 10.8209C3.52403 10.9903 3.42745 11.1488 3.32838 11.2985C3.08937 11.6586 2.69854 12.0443 2.49773 12.0443C2.47801 12.0443 2.45406 12.0412 2.41916 12.0042C2.39662 11.9806 2.39302 11.9637 2.39411 11.9407C2.40085 11.8083 2.5763 11.5724 2.83049 11.3537C3.0612 11.1553 3.32196 10.979 3.61872 10.8209ZM10.2817 9.82188C10.2511 9.38081 9.50853 9.09783 9.50117 9.09516C9.21412 8.99343 8.90233 8.94397 8.54797 8.94397C8.16857 8.94397 7.75959 8.99891 7.23431 9.12162C6.76694 8.79027 6.36312 8.37549 6.06151 7.91626C5.92831 7.71341 5.80858 7.51088 5.70418 7.31304C5.95899 6.70371 6.18845 6.04852 6.14682 5.31476C6.11316 4.72641 5.84786 4.33119 5.48709 4.33119C5.23963 4.33119 5.02645 4.51448 4.85319 4.87651C4.54406 5.52168 4.62529 6.34716 5.09454 7.33213C4.9255 7.72907 4.76851 8.14055 4.61653 8.53905C4.42745 9.03443 4.23259 9.54547 4.01299 10.0316C3.39709 10.2753 2.89122 10.5708 2.46956 10.9336C2.1933 11.1709 1.86039 11.5336 1.84129 11.9122C1.83206 12.0905 1.8931 12.254 2.01737 12.385C2.14932 12.5242 2.31523 12.5974 2.49757 12.5976C3.09986 12.5976 3.67945 11.7701 3.78933 11.6042C4.01064 11.2706 4.21772 10.8986 4.42072 10.4694C4.93191 10.2847 5.47676 10.1468 6.0047 10.0135L6.19377 9.96541C6.33589 9.92925 6.48364 9.88934 6.63515 9.84786C6.79559 9.80451 6.96056 9.75959 7.12819 9.71686C7.67037 10.0617 8.2534 10.2866 8.82204 10.3691C9.30099 10.4387 9.72641 10.3983 10.0142 10.2482C10.2734 10.1133 10.2878 9.90515 10.2817 9.82188ZM11.4481 13.6147C11.4481 14.4224 10.7361 14.4722 10.5924 14.4739H1.40679C0.601972 14.4739 0.553451 13.7571 0.551886 13.6147V1.41133C0.551886 0.602755 1.26514 0.553764 1.40679 0.552043H7.61199L7.61528 0.55533V2.97684C7.61528 3.46283 7.90906 4.38285 9.02176 4.38285H11.4275L11.4481 4.40351V13.6147ZM10.8778 3.8308H9.02191C8.21725 3.8308 8.16857 3.11786 8.16748 2.97684V1.10941L10.8778 3.8308ZM12 13.6147V4.17561L8.16748 0.327125V0.309282H8.14916L7.84145 0H1.40679C0.920175 0 0 0.295038 0 1.41133V13.6148C0 14.1028 0.294099 15.026 1.40679 15.026H10.5934C11.0798 15.0258 12 14.7309 12 13.6147Z" fill="#262626"/>
</svg>
